<mxfile host="Electron" modified="2020-05-18T18:15:10.218Z" agent="5.0 (X11; Linux x86_64) AppleWebKit/537.36 (KHTML, like Gecko) draw.io/13.0.3 Chrome/80.0.3987.165 Electron/8.2.5 Safari/537.36" etag="RDgG1Wsk6tY7PAV6SByz" compressed="false" version="13.0.3" type="device" pages="2">
  <diagram id="RLOoCkEmfC1kCt_ERs4h" name="ERD">
    <mxGraphModel dx="1102" dy="822" grid="1" gridSize="10" guides="1" tooltips="1" connect="1" arrows="1" fold="1" page="1" pageScale="1" pageWidth="1169" pageHeight="1654" math="0" shadow="0">
      <root>
        <mxCell id="0" />
        <mxCell id="1" parent="0" />
        <mxCell id="q0ngvxd6lDWXGjiL8JKx-23" style="edgeStyle=orthogonalEdgeStyle;rounded=1;orthogonalLoop=1;jettySize=auto;html=1;startArrow=ERzeroToMany;startFill=1;endArrow=ERmandOne;endFill=0;exitX=1;exitY=0.5;exitDx=0;exitDy=0;dashed=1;entryX=0;entryY=0.5;entryDx=0;entryDy=0;" parent="1" source="q0ngvxd6lDWXGjiL8JKx-17" target="q0ngvxd6lDWXGjiL8JKx-2" edge="1">
          <mxGeometry relative="1" as="geometry">
            <Array as="points">
              <mxPoint x="540" y="299" />
              <mxPoint x="540" y="246" />
            </Array>
          </mxGeometry>
        </mxCell>
        <mxCell id="CZWm_Kjjg1r7m4dwWxef-43" style="edgeStyle=orthogonalEdgeStyle;rounded=1;orthogonalLoop=1;jettySize=auto;html=1;startArrow=ERzeroToMany;startFill=1;endArrow=ERmandOne;endFill=0;exitX=0;exitY=0.5;exitDx=0;exitDy=0;dashed=1;" parent="1" source="CZWm_Kjjg1r7m4dwWxef-39" target="q0ngvxd6lDWXGjiL8JKx-12" edge="1">
          <mxGeometry relative="1" as="geometry" />
        </mxCell>
        <mxCell id="CZWm_Kjjg1r7m4dwWxef-62" style="edgeStyle=orthogonalEdgeStyle;rounded=1;orthogonalLoop=1;jettySize=auto;html=1;startArrow=ERzeroToOne;startFill=1;endArrow=ERmandOne;endFill=0;strokeColor=#000000;exitX=0;exitY=0.5;exitDx=0;exitDy=0;entryX=1;entryY=0.3;entryDx=0;entryDy=0;entryPerimeter=0;dashed=1;" parent="1" source="CZWm_Kjjg1r7m4dwWxef-87" target="CZWm_Kjjg1r7m4dwWxef-25" edge="1">
          <mxGeometry relative="1" as="geometry">
            <mxPoint x="676" y="724" as="sourcePoint" />
          </mxGeometry>
        </mxCell>
        <mxCell id="QtLXU1wTtizaAyf6Qufu-1" style="edgeStyle=orthogonalEdgeStyle;rounded=1;orthogonalLoop=1;jettySize=auto;html=1;startArrow=ERzeroToMany;startFill=1;endArrow=ERoneToMany;endFill=0;strokeColor=#000000;" parent="1" source="CZWm_Kjjg1r7m4dwWxef-1" target="q0ngvxd6lDWXGjiL8JKx-12" edge="1">
          <mxGeometry relative="1" as="geometry">
            <mxPoint x="250" y="220" as="targetPoint" />
          </mxGeometry>
        </mxCell>
        <mxCell id="CZWm_Kjjg1r7m4dwWxef-117" style="edgeStyle=orthogonalEdgeStyle;rounded=1;orthogonalLoop=1;jettySize=auto;html=1;startArrow=ERzeroToMany;startFill=1;endArrow=ERmandOne;endFill=0;strokeColor=#000000;exitX=0;exitY=0.5;exitDx=0;exitDy=0;dashed=1;" parent="1" source="CZWm_Kjjg1r7m4dwWxef-113" target="CZWm_Kjjg1r7m4dwWxef-1" edge="1">
          <mxGeometry relative="1" as="geometry" />
        </mxCell>
        <mxCell id="CZWm_Kjjg1r7m4dwWxef-118" style="rounded=1;orthogonalLoop=1;jettySize=auto;html=1;startArrow=ERzeroToMany;startFill=1;endArrow=ERmandOne;endFill=0;strokeColor=#000000;edgeStyle=orthogonalEdgeStyle;entryX=0;entryY=0.5;entryDx=0;entryDy=0;dashed=1;" parent="1" source="CZWm_Kjjg1r7m4dwWxef-115" target="CZWm_Kjjg1r7m4dwWxef-41" edge="1">
          <mxGeometry relative="1" as="geometry">
            <mxPoint x="586" y="479" as="targetPoint" />
            <Array as="points">
              <mxPoint x="520" y="599" />
              <mxPoint x="520" y="517" />
            </Array>
          </mxGeometry>
        </mxCell>
        <mxCell id="CZWm_Kjjg1r7m4dwWxef-120" style="edgeStyle=orthogonalEdgeStyle;rounded=1;orthogonalLoop=1;jettySize=auto;html=1;entryX=1;entryY=0.733;entryDx=0;entryDy=0;startArrow=ERzeroToOne;startFill=1;endArrow=ERmandOne;endFill=0;strokeColor=#000000;entryPerimeter=0;exitX=0;exitY=0.5;exitDx=0;exitDy=0;dashed=1;" parent="1" source="CZWm_Kjjg1r7m4dwWxef-92" target="CZWm_Kjjg1r7m4dwWxef-25" edge="1">
          <mxGeometry relative="1" as="geometry" />
        </mxCell>
        <mxCell id="CZWm_Kjjg1r7m4dwWxef-96" value="Gruppe" style="swimlane;fontStyle=0;childLayout=stackLayout;horizontal=1;startSize=26;horizontalStack=0;resizeParent=1;resizeParentMax=0;resizeLast=0;collapsible=1;marginBottom=0;align=center;fontSize=14;" parent="1" vertex="1">
          <mxGeometry x="186" y="504" width="160" height="264" as="geometry" />
        </mxCell>
        <mxCell id="CZWm_Kjjg1r7m4dwWxef-97" value="id" style="shape=partialRectangle;top=0;left=0;right=0;bottom=1;align=left;verticalAlign=middle;fillColor=none;spacingLeft=34;spacingRight=4;overflow=hidden;rotatable=0;points=[[0,0.5],[1,0.5]];portConstraint=eastwest;dropTarget=0;fontStyle=1;fontSize=12;" parent="CZWm_Kjjg1r7m4dwWxef-96" vertex="1">
          <mxGeometry y="26" width="160" height="30" as="geometry" />
        </mxCell>
        <mxCell id="CZWm_Kjjg1r7m4dwWxef-98" value="PK" style="shape=partialRectangle;top=0;left=0;bottom=0;fillColor=none;align=left;verticalAlign=middle;spacingLeft=4;spacingRight=4;overflow=hidden;rotatable=0;points=[];portConstraint=eastwest;part=1;fontSize=12;fontStyle=1" parent="CZWm_Kjjg1r7m4dwWxef-97" vertex="1" connectable="0">
          <mxGeometry width="30" height="30" as="geometry" />
        </mxCell>
        <mxCell id="CZWm_Kjjg1r7m4dwWxef-113" value="modul_id" style="shape=partialRectangle;top=0;left=0;right=0;bottom=0;align=left;verticalAlign=top;fillColor=none;spacingLeft=34;spacingRight=4;overflow=hidden;rotatable=0;points=[[0,0.5],[1,0.5]];portConstraint=eastwest;dropTarget=0;fontSize=12;fontStyle=2" parent="CZWm_Kjjg1r7m4dwWxef-96" vertex="1">
          <mxGeometry y="56" width="160" height="26" as="geometry" />
        </mxCell>
        <mxCell id="CZWm_Kjjg1r7m4dwWxef-114" value="FK" style="shape=partialRectangle;top=0;left=0;bottom=0;fillColor=none;align=left;verticalAlign=top;spacingLeft=4;spacingRight=4;overflow=hidden;rotatable=0;points=[];portConstraint=eastwest;part=1;fontSize=12;" parent="CZWm_Kjjg1r7m4dwWxef-113" vertex="1" connectable="0">
          <mxGeometry width="30" height="26" as="geometry" />
        </mxCell>
        <mxCell id="CZWm_Kjjg1r7m4dwWxef-115" value="ersteller_id" style="shape=partialRectangle;top=0;left=0;right=0;bottom=0;align=left;verticalAlign=top;fillColor=none;spacingLeft=34;spacingRight=4;overflow=hidden;rotatable=0;points=[[0,0.5],[1,0.5]];portConstraint=eastwest;dropTarget=0;fontSize=12;fontStyle=2" parent="CZWm_Kjjg1r7m4dwWxef-96" vertex="1">
          <mxGeometry y="82" width="160" height="26" as="geometry" />
        </mxCell>
        <mxCell id="CZWm_Kjjg1r7m4dwWxef-116" value="FK" style="shape=partialRectangle;top=0;left=0;bottom=0;fillColor=none;align=left;verticalAlign=top;spacingLeft=4;spacingRight=4;overflow=hidden;rotatable=0;points=[];portConstraint=eastwest;part=1;fontSize=12;" parent="CZWm_Kjjg1r7m4dwWxef-115" vertex="1" connectable="0">
          <mxGeometry width="30" height="26" as="geometry" />
        </mxCell>
        <mxCell id="CZWm_Kjjg1r7m4dwWxef-99" value="name" style="shape=partialRectangle;top=0;left=0;right=0;bottom=0;align=left;verticalAlign=top;fillColor=none;spacingLeft=34;spacingRight=4;overflow=hidden;rotatable=0;points=[[0,0.5],[1,0.5]];portConstraint=eastwest;dropTarget=0;fontSize=12;" parent="CZWm_Kjjg1r7m4dwWxef-96" vertex="1">
          <mxGeometry y="108" width="160" height="26" as="geometry" />
        </mxCell>
        <mxCell id="CZWm_Kjjg1r7m4dwWxef-100" value="" style="shape=partialRectangle;top=0;left=0;bottom=0;fillColor=none;align=left;verticalAlign=top;spacingLeft=4;spacingRight=4;overflow=hidden;rotatable=0;points=[];portConstraint=eastwest;part=1;fontSize=12;" parent="CZWm_Kjjg1r7m4dwWxef-99" vertex="1" connectable="0">
          <mxGeometry width="30" height="26" as="geometry" />
        </mxCell>
        <mxCell id="CZWm_Kjjg1r7m4dwWxef-101" value="limit = 8" style="shape=partialRectangle;top=0;left=0;right=0;bottom=0;align=left;verticalAlign=top;fillColor=none;spacingLeft=34;spacingRight=4;overflow=hidden;rotatable=0;points=[[0,0.5],[1,0.5]];portConstraint=eastwest;dropTarget=0;fontSize=12;" parent="CZWm_Kjjg1r7m4dwWxef-96" vertex="1">
          <mxGeometry y="134" width="160" height="26" as="geometry" />
        </mxCell>
        <mxCell id="CZWm_Kjjg1r7m4dwWxef-102" value="" style="shape=partialRectangle;top=0;left=0;bottom=0;fillColor=none;align=left;verticalAlign=top;spacingLeft=4;spacingRight=4;overflow=hidden;rotatable=0;points=[];portConstraint=eastwest;part=1;fontSize=12;" parent="CZWm_Kjjg1r7m4dwWxef-101" vertex="1" connectable="0">
          <mxGeometry width="30" height="26" as="geometry" />
        </mxCell>
        <mxCell id="CZWm_Kjjg1r7m4dwWxef-103" value="oeffentlich = true" style="shape=partialRectangle;top=0;left=0;right=0;bottom=0;align=left;verticalAlign=top;fillColor=none;spacingLeft=34;spacingRight=4;overflow=hidden;rotatable=0;points=[[0,0.5],[1,0.5]];portConstraint=eastwest;dropTarget=0;fontSize=12;" parent="CZWm_Kjjg1r7m4dwWxef-96" vertex="1">
          <mxGeometry y="160" width="160" height="26" as="geometry" />
        </mxCell>
        <mxCell id="CZWm_Kjjg1r7m4dwWxef-104" value="" style="shape=partialRectangle;top=0;left=0;bottom=0;fillColor=none;align=left;verticalAlign=top;spacingLeft=4;spacingRight=4;overflow=hidden;rotatable=0;points=[];portConstraint=eastwest;part=1;fontSize=12;" parent="CZWm_Kjjg1r7m4dwWxef-103" vertex="1" connectable="0">
          <mxGeometry width="30" height="26" as="geometry" />
        </mxCell>
        <mxCell id="CZWm_Kjjg1r7m4dwWxef-107" value="betretbar = false" style="shape=partialRectangle;top=0;left=0;right=0;bottom=0;align=left;verticalAlign=top;fillColor=none;spacingLeft=34;spacingRight=4;overflow=hidden;rotatable=0;points=[[0,0.5],[1,0.5]];portConstraint=eastwest;dropTarget=0;fontSize=12;" parent="CZWm_Kjjg1r7m4dwWxef-96" vertex="1">
          <mxGeometry y="186" width="160" height="26" as="geometry" />
        </mxCell>
        <mxCell id="CZWm_Kjjg1r7m4dwWxef-108" value="" style="shape=partialRectangle;top=0;left=0;bottom=0;fillColor=none;align=left;verticalAlign=top;spacingLeft=4;spacingRight=4;overflow=hidden;rotatable=0;points=[];portConstraint=eastwest;part=1;fontSize=12;" parent="CZWm_Kjjg1r7m4dwWxef-107" vertex="1" connectable="0">
          <mxGeometry width="30" height="26" as="geometry" />
        </mxCell>
        <mxCell id="CZWm_Kjjg1r7m4dwWxef-109" value="deadline" style="shape=partialRectangle;top=0;left=0;right=0;bottom=0;align=left;verticalAlign=top;fillColor=none;spacingLeft=34;spacingRight=4;overflow=hidden;rotatable=0;points=[[0,0.5],[1,0.5]];portConstraint=eastwest;dropTarget=0;fontSize=12;" parent="CZWm_Kjjg1r7m4dwWxef-96" vertex="1">
          <mxGeometry y="212" width="160" height="26" as="geometry" />
        </mxCell>
        <mxCell id="CZWm_Kjjg1r7m4dwWxef-110" value="null" style="shape=partialRectangle;top=0;left=0;bottom=0;fillColor=none;align=left;verticalAlign=top;spacingLeft=4;spacingRight=4;overflow=hidden;rotatable=0;points=[];portConstraint=eastwest;part=1;fontSize=12;" parent="CZWm_Kjjg1r7m4dwWxef-109" vertex="1" connectable="0">
          <mxGeometry width="30" height="26" as="geometry" />
        </mxCell>
        <mxCell id="CZWm_Kjjg1r7m4dwWxef-111" value="ort" style="shape=partialRectangle;top=0;left=0;right=0;bottom=0;align=left;verticalAlign=top;fillColor=none;spacingLeft=34;spacingRight=4;overflow=hidden;rotatable=0;points=[[0,0.5],[1,0.5]];portConstraint=eastwest;dropTarget=0;fontSize=12;" parent="CZWm_Kjjg1r7m4dwWxef-96" vertex="1">
          <mxGeometry y="238" width="160" height="26" as="geometry" />
        </mxCell>
        <mxCell id="CZWm_Kjjg1r7m4dwWxef-112" value="null" style="shape=partialRectangle;top=0;left=0;bottom=0;fillColor=none;align=left;verticalAlign=top;spacingLeft=4;spacingRight=4;overflow=hidden;rotatable=0;points=[];portConstraint=eastwest;part=1;fontSize=12;" parent="CZWm_Kjjg1r7m4dwWxef-111" vertex="1" connectable="0">
          <mxGeometry width="30" height="26" as="geometry" />
        </mxCell>
        <mxCell id="CZWm_Kjjg1r7m4dwWxef-139" style="edgeStyle=orthogonalEdgeStyle;rounded=1;orthogonalLoop=1;jettySize=auto;html=1;entryX=1;entryY=0.5;entryDx=0;entryDy=0;startArrow=ERzeroToMany;startFill=1;endArrow=ERmandOne;endFill=0;strokeColor=#000000;exitX=1;exitY=0.5;exitDx=0;exitDy=0;dashed=1;" parent="1" source="QtLXU1wTtizaAyf6Qufu-16" target="CZWm_Kjjg1r7m4dwWxef-97" edge="1">
          <mxGeometry relative="1" as="geometry">
            <mxPoint x="346" y="425" as="sourcePoint" />
            <Array as="points">
              <mxPoint x="390" y="437" />
              <mxPoint x="390" y="545" />
            </Array>
          </mxGeometry>
        </mxCell>
        <mxCell id="CZWm_Kjjg1r7m4dwWxef-154" style="edgeStyle=orthogonalEdgeStyle;rounded=1;orthogonalLoop=1;jettySize=auto;html=1;startArrow=ERzeroToMany;startFill=1;endArrow=ERmandOne;endFill=0;strokeColor=#000000;entryX=0.4;entryY=1;entryDx=0;entryDy=0;entryPerimeter=0;exitX=1;exitY=0.5;exitDx=0;exitDy=0;dashed=1;" parent="1" source="CZWm_Kjjg1r7m4dwWxef-145" target="CZWm_Kjjg1r7m4dwWxef-94" edge="1">
          <mxGeometry relative="1" as="geometry" />
        </mxCell>
        <mxCell id="CZWm_Kjjg1r7m4dwWxef-153" style="edgeStyle=orthogonalEdgeStyle;rounded=1;orthogonalLoop=1;jettySize=auto;html=1;startArrow=ERzeroToMany;startFill=1;endArrow=ERmandOne;endFill=0;strokeColor=#000000;exitX=0;exitY=0.5;exitDx=0;exitDy=0;entryX=0.75;entryY=0.962;entryDx=0;entryDy=0;entryPerimeter=0;dashed=1;" parent="1" source="CZWm_Kjjg1r7m4dwWxef-143" target="CZWm_Kjjg1r7m4dwWxef-111" edge="1">
          <mxGeometry relative="1" as="geometry" />
        </mxCell>
        <mxCell id="CZWm_Kjjg1r7m4dwWxef-166" style="edgeStyle=orthogonalEdgeStyle;rounded=1;orthogonalLoop=1;jettySize=auto;html=1;startArrow=ERzeroToMany;startFill=1;endArrow=ERmandOne;endFill=0;strokeColor=#000000;entryX=0.2;entryY=1;entryDx=0;entryDy=0;entryPerimeter=0;exitX=1;exitY=0.5;exitDx=0;exitDy=0;" parent="1" source="QtLXU1wTtizaAyf6Qufu-11" target="CZWm_Kjjg1r7m4dwWxef-94" edge="1">
          <mxGeometry relative="1" as="geometry" />
        </mxCell>
        <mxCell id="CZWm_Kjjg1r7m4dwWxef-199" style="edgeStyle=orthogonalEdgeStyle;rounded=1;orthogonalLoop=1;jettySize=auto;html=1;startArrow=ERzeroToMany;startFill=1;endArrow=ERmandOne;endFill=0;strokeColor=#000000;exitX=0;exitY=0.5;exitDx=0;exitDy=0;" parent="1" source="QtLXU1wTtizaAyf6Qufu-9" target="CZWm_Kjjg1r7m4dwWxef-96" edge="1">
          <mxGeometry relative="1" as="geometry" />
        </mxCell>
        <mxCell id="CZWm_Kjjg1r7m4dwWxef-175" style="edgeStyle=orthogonalEdgeStyle;rounded=1;orthogonalLoop=1;jettySize=auto;html=1;startArrow=ERzeroToMany;startFill=1;endArrow=ERmandOne;endFill=0;strokeColor=#000000;exitX=0;exitY=0.5;exitDx=0;exitDy=0;entryX=0.5;entryY=1;entryDx=0;entryDy=0;entryPerimeter=0;dashed=1;" parent="1" source="CZWm_Kjjg1r7m4dwWxef-169" target="CZWm_Kjjg1r7m4dwWxef-111" edge="1">
          <mxGeometry relative="1" as="geometry">
            <mxPoint x="436" y="833" as="sourcePoint" />
            <mxPoint x="302.0799999999999" y="778" as="targetPoint" />
          </mxGeometry>
        </mxCell>
        <mxCell id="CZWm_Kjjg1r7m4dwWxef-176" style="edgeStyle=orthogonalEdgeStyle;rounded=1;orthogonalLoop=1;jettySize=auto;html=1;startArrow=ERzeroToMany;startFill=1;endArrow=ERmandOne;endFill=0;strokeColor=#000000;entryX=0.6;entryY=1;entryDx=0;entryDy=0;entryPerimeter=0;exitX=1;exitY=0.5;exitDx=0;exitDy=0;dashed=1;" parent="1" source="CZWm_Kjjg1r7m4dwWxef-171" target="CZWm_Kjjg1r7m4dwWxef-94" edge="1">
          <mxGeometry relative="1" as="geometry">
            <mxPoint x="596" y="859" as="sourcePoint" />
            <mxPoint x="686" y="538" as="targetPoint" />
          </mxGeometry>
        </mxCell>
        <mxCell id="CZWm_Kjjg1r7m4dwWxef-198" style="edgeStyle=orthogonalEdgeStyle;rounded=1;orthogonalLoop=1;jettySize=auto;html=1;startArrow=ERzeroToMany;startFill=1;endArrow=ERmandOne;endFill=0;strokeColor=#000000;entryX=0.8;entryY=1;entryDx=0;entryDy=0;entryPerimeter=0;dashed=1;exitX=1;exitY=0.5;exitDx=0;exitDy=0;" parent="1" source="A3N_dmrzNlg626EpN3l3-8" target="CZWm_Kjjg1r7m4dwWxef-94" edge="1">
          <mxGeometry relative="1" as="geometry" />
        </mxCell>
        <mxCell id="CZWm_Kjjg1r7m4dwWxef-197" style="edgeStyle=orthogonalEdgeStyle;rounded=1;orthogonalLoop=1;jettySize=auto;html=1;startArrow=ERzeroToMany;startFill=1;endArrow=ERmandOne;endFill=0;strokeColor=#000000;exitX=0;exitY=0.5;exitDx=0;exitDy=0;entryX=0.25;entryY=1;entryDx=0;entryDy=0;entryPerimeter=0;dashed=1;" parent="1" source="A3N_dmrzNlg626EpN3l3-4" target="CZWm_Kjjg1r7m4dwWxef-111" edge="1">
          <mxGeometry relative="1" as="geometry">
            <mxPoint x="356" y="1019" as="sourcePoint" />
            <mxPoint x="196" y="814" as="targetPoint" />
          </mxGeometry>
        </mxCell>
        <mxCell id="QtLXU1wTtizaAyf6Qufu-4" value="🠘 beinhaltet" style="text;strokeColor=none;fillColor=none;spacingLeft=4;spacingRight=4;overflow=hidden;rotatable=0;points=[[0,0.5],[1,0.5]];portConstraint=eastwest;fontSize=12;align=center;" parent="1" vertex="1">
          <mxGeometry x="257" y="247" width="74" height="26" as="geometry" />
        </mxCell>
        <mxCell id="QtLXU1wTtizaAyf6Qufu-15" value="GruppenDienstlink" style="swimlane;fontStyle=0;childLayout=stackLayout;horizontal=1;startSize=26;horizontalStack=0;resizeParent=1;resizeParentMax=0;resizeLast=0;collapsible=1;marginBottom=0;align=center;fontSize=14;" parent="1" vertex="1">
          <mxGeometry x="186" y="396" width="160" height="82" as="geometry" />
        </mxCell>
        <mxCell id="QtLXU1wTtizaAyf6Qufu-16" value="gruppe_id" style="shape=partialRectangle;top=0;left=0;right=0;bottom=1;align=left;verticalAlign=middle;fillColor=none;spacingLeft=34;spacingRight=4;overflow=hidden;rotatable=0;points=[[0,0.5],[1,0.5]];portConstraint=eastwest;dropTarget=0;fontStyle=2;fontSize=12;strokeColor=none;" parent="QtLXU1wTtizaAyf6Qufu-15" vertex="1">
          <mxGeometry y="26" width="160" height="30" as="geometry" />
        </mxCell>
        <mxCell id="QtLXU1wTtizaAyf6Qufu-17" value="FK" style="shape=partialRectangle;top=0;left=0;bottom=0;fillColor=none;align=left;verticalAlign=middle;spacingLeft=4;spacingRight=4;overflow=hidden;rotatable=0;points=[];portConstraint=eastwest;part=1;fontSize=12;" parent="QtLXU1wTtizaAyf6Qufu-16" vertex="1" connectable="0">
          <mxGeometry width="30" height="30" as="geometry" />
        </mxCell>
        <mxCell id="QtLXU1wTtizaAyf6Qufu-18" value="url" style="shape=partialRectangle;top=0;left=0;right=0;bottom=0;align=left;verticalAlign=top;fillColor=none;spacingLeft=34;spacingRight=4;overflow=hidden;rotatable=0;points=[[0,0.5],[1,0.5]];portConstraint=eastwest;dropTarget=0;fontSize=12;" parent="QtLXU1wTtizaAyf6Qufu-15" vertex="1">
          <mxGeometry y="56" width="160" height="26" as="geometry" />
        </mxCell>
        <mxCell id="QtLXU1wTtizaAyf6Qufu-19" value="" style="shape=partialRectangle;top=0;left=0;bottom=0;fillColor=none;align=left;verticalAlign=top;spacingLeft=4;spacingRight=4;overflow=hidden;rotatable=0;points=[];portConstraint=eastwest;part=1;fontSize=12;" parent="QtLXU1wTtizaAyf6Qufu-18" vertex="1" connectable="0">
          <mxGeometry width="30" height="26" as="geometry" />
        </mxCell>
        <mxCell id="CZWm_Kjjg1r7m4dwWxef-24" value="Student" style="swimlane;fontStyle=0;childLayout=stackLayout;horizontal=1;startSize=26;horizontalStack=0;resizeParent=1;resizeParentMax=0;resizeLast=0;collapsible=1;marginBottom=0;align=center;fontSize=14;" parent="1" vertex="1">
          <mxGeometry x="596" y="370" width="160" height="264" as="geometry" />
        </mxCell>
        <mxCell id="CZWm_Kjjg1r7m4dwWxef-25" value="id" style="shape=partialRectangle;top=0;left=0;right=0;bottom=1;align=left;verticalAlign=middle;fillColor=none;spacingLeft=34;spacingRight=4;overflow=hidden;rotatable=0;points=[[0,0.5],[1,0.5]];portConstraint=eastwest;dropTarget=0;fontStyle=1;fontSize=12;" parent="CZWm_Kjjg1r7m4dwWxef-24" vertex="1">
          <mxGeometry y="26" width="160" height="30" as="geometry" />
        </mxCell>
        <mxCell id="CZWm_Kjjg1r7m4dwWxef-26" value="PK" style="shape=partialRectangle;top=0;left=0;bottom=0;fillColor=none;align=left;verticalAlign=middle;spacingLeft=4;spacingRight=4;overflow=hidden;rotatable=0;points=[];portConstraint=eastwest;part=1;fontSize=12;fontStyle=1" parent="CZWm_Kjjg1r7m4dwWxef-25" vertex="1" connectable="0">
          <mxGeometry width="30" height="30" as="geometry" />
        </mxCell>
        <mxCell id="CZWm_Kjjg1r7m4dwWxef-27" value="name" style="shape=partialRectangle;top=0;left=0;right=0;bottom=0;align=left;verticalAlign=top;fillColor=none;spacingLeft=34;spacingRight=4;overflow=hidden;rotatable=0;points=[[0,0.5],[1,0.5]];portConstraint=eastwest;dropTarget=0;fontSize=12;" parent="CZWm_Kjjg1r7m4dwWxef-24" vertex="1">
          <mxGeometry y="56" width="160" height="26" as="geometry" />
        </mxCell>
        <mxCell id="CZWm_Kjjg1r7m4dwWxef-28" value="" style="shape=partialRectangle;top=0;left=0;bottom=0;fillColor=none;align=left;verticalAlign=top;spacingLeft=4;spacingRight=4;overflow=hidden;rotatable=0;points=[];portConstraint=eastwest;part=1;fontSize=12;" parent="CZWm_Kjjg1r7m4dwWxef-27" vertex="1" connectable="0">
          <mxGeometry width="30" height="26" as="geometry" />
        </mxCell>
        <mxCell id="CZWm_Kjjg1r7m4dwWxef-29" value="smail_adresse" style="shape=partialRectangle;top=0;left=0;right=0;bottom=0;align=left;verticalAlign=top;fillColor=none;spacingLeft=34;spacingRight=4;overflow=hidden;rotatable=0;points=[[0,0.5],[1,0.5]];portConstraint=eastwest;dropTarget=0;fontSize=12;" parent="CZWm_Kjjg1r7m4dwWxef-24" vertex="1">
          <mxGeometry y="82" width="160" height="26" as="geometry" />
        </mxCell>
        <mxCell id="CZWm_Kjjg1r7m4dwWxef-30" value="" style="shape=partialRectangle;top=0;left=0;bottom=0;fillColor=none;align=left;verticalAlign=top;spacingLeft=4;spacingRight=4;overflow=hidden;rotatable=0;points=[];portConstraint=eastwest;part=1;fontSize=12;" parent="CZWm_Kjjg1r7m4dwWxef-29" vertex="1" connectable="0">
          <mxGeometry width="30" height="26" as="geometry" />
        </mxCell>
        <mxCell id="CZWm_Kjjg1r7m4dwWxef-39" value="studiengang_id" style="shape=partialRectangle;top=0;left=0;right=0;bottom=0;align=left;verticalAlign=top;fillColor=none;spacingLeft=34;spacingRight=4;overflow=hidden;rotatable=0;points=[[0,0.5],[1,0.5]];portConstraint=eastwest;dropTarget=0;fontSize=12;fontStyle=2" parent="CZWm_Kjjg1r7m4dwWxef-24" vertex="1">
          <mxGeometry y="108" width="160" height="26" as="geometry" />
        </mxCell>
        <mxCell id="CZWm_Kjjg1r7m4dwWxef-40" value="FK" style="shape=partialRectangle;top=0;left=0;bottom=0;fillColor=none;align=left;verticalAlign=top;spacingLeft=4;spacingRight=4;overflow=hidden;rotatable=0;points=[];portConstraint=eastwest;part=1;fontSize=12;" parent="CZWm_Kjjg1r7m4dwWxef-39" vertex="1" connectable="0">
          <mxGeometry width="30" height="26" as="geometry" />
        </mxCell>
        <mxCell id="CZWm_Kjjg1r7m4dwWxef-41" value="semester = 1" style="shape=partialRectangle;top=0;left=0;right=0;bottom=0;align=left;verticalAlign=top;fillColor=none;spacingLeft=34;spacingRight=4;overflow=hidden;rotatable=0;points=[[0,0.5],[1,0.5]];portConstraint=eastwest;dropTarget=0;fontSize=12;" parent="CZWm_Kjjg1r7m4dwWxef-24" vertex="1">
          <mxGeometry y="134" width="160" height="26" as="geometry" />
        </mxCell>
        <mxCell id="CZWm_Kjjg1r7m4dwWxef-42" value="" style="shape=partialRectangle;top=0;left=0;bottom=0;fillColor=none;align=left;verticalAlign=top;spacingLeft=4;spacingRight=4;overflow=hidden;rotatable=0;points=[];portConstraint=eastwest;part=1;fontSize=12;" parent="CZWm_Kjjg1r7m4dwWxef-41" vertex="1" connectable="0">
          <mxGeometry width="30" height="26" as="geometry" />
        </mxCell>
        <mxCell id="CZWm_Kjjg1r7m4dwWxef-31" value="passwort_hash" style="shape=partialRectangle;top=0;left=0;right=0;bottom=0;align=left;verticalAlign=top;fillColor=none;spacingLeft=34;spacingRight=4;overflow=hidden;rotatable=0;points=[[0,0.5],[1,0.5]];portConstraint=eastwest;dropTarget=0;fontSize=12;" parent="CZWm_Kjjg1r7m4dwWxef-24" vertex="1">
          <mxGeometry y="160" width="160" height="26" as="geometry" />
        </mxCell>
        <mxCell id="CZWm_Kjjg1r7m4dwWxef-32" value="" style="shape=partialRectangle;top=0;left=0;bottom=0;fillColor=none;align=left;verticalAlign=top;spacingLeft=4;spacingRight=4;overflow=hidden;rotatable=0;points=[];portConstraint=eastwest;part=1;fontSize=12;" parent="CZWm_Kjjg1r7m4dwWxef-31" vertex="1" connectable="0">
          <mxGeometry width="30" height="26" as="geometry" />
        </mxCell>
        <mxCell id="CZWm_Kjjg1r7m4dwWxef-37" value="profil_beschreibung" style="shape=partialRectangle;top=0;left=0;right=0;bottom=0;align=left;verticalAlign=top;fillColor=none;spacingLeft=34;spacingRight=4;overflow=hidden;rotatable=0;points=[[0,0.5],[1,0.5]];portConstraint=eastwest;dropTarget=0;fontSize=12;" parent="CZWm_Kjjg1r7m4dwWxef-24" vertex="1">
          <mxGeometry y="186" width="160" height="26" as="geometry" />
        </mxCell>
        <mxCell id="CZWm_Kjjg1r7m4dwWxef-38" value="" style="shape=partialRectangle;top=0;left=0;bottom=0;fillColor=none;align=left;verticalAlign=top;spacingLeft=4;spacingRight=4;overflow=hidden;rotatable=0;points=[];portConstraint=eastwest;part=1;fontSize=12;" parent="CZWm_Kjjg1r7m4dwWxef-37" vertex="1" connectable="0">
          <mxGeometry width="30" height="26" as="geometry" />
        </mxCell>
        <mxCell id="CZWm_Kjjg1r7m4dwWxef-35" value="profil_bild" style="shape=partialRectangle;top=0;left=0;right=0;bottom=0;align=left;verticalAlign=top;fillColor=none;spacingLeft=34;spacingRight=4;overflow=hidden;rotatable=0;points=[[0,0.5],[1,0.5]];portConstraint=eastwest;dropTarget=0;fontSize=12;" parent="CZWm_Kjjg1r7m4dwWxef-24" vertex="1">
          <mxGeometry y="212" width="160" height="26" as="geometry" />
        </mxCell>
        <mxCell id="CZWm_Kjjg1r7m4dwWxef-36" value="null" style="shape=partialRectangle;top=0;left=0;bottom=0;fillColor=none;align=left;verticalAlign=top;spacingLeft=4;spacingRight=4;overflow=hidden;rotatable=0;points=[];portConstraint=eastwest;part=1;fontSize=12;" parent="CZWm_Kjjg1r7m4dwWxef-35" vertex="1" connectable="0">
          <mxGeometry width="30" height="26" as="geometry" />
        </mxCell>
        <mxCell id="CZWm_Kjjg1r7m4dwWxef-94" value="geburtsdatum" style="shape=partialRectangle;top=0;left=0;right=0;bottom=0;align=left;verticalAlign=top;fillColor=none;spacingLeft=34;spacingRight=4;overflow=hidden;rotatable=0;points=[[0,0.5],[1,0.5]];portConstraint=eastwest;dropTarget=0;fontSize=12;" parent="CZWm_Kjjg1r7m4dwWxef-24" vertex="1">
          <mxGeometry y="238" width="160" height="26" as="geometry" />
        </mxCell>
        <mxCell id="CZWm_Kjjg1r7m4dwWxef-95" value="null" style="shape=partialRectangle;top=0;left=0;bottom=0;fillColor=none;align=left;verticalAlign=top;spacingLeft=4;spacingRight=4;overflow=hidden;rotatable=0;points=[];portConstraint=eastwest;part=1;fontSize=12;" parent="CZWm_Kjjg1r7m4dwWxef-94" vertex="1" connectable="0">
          <mxGeometry width="30" height="26" as="geometry" />
        </mxCell>
        <mxCell id="CZWm_Kjjg1r7m4dwWxef-140" value="GruppenBeitrag" style="swimlane;fontStyle=0;childLayout=stackLayout;horizontal=1;startSize=26;horizontalStack=0;resizeParent=1;resizeParentMax=0;resizeLast=0;collapsible=1;marginBottom=0;align=center;fontSize=14;" parent="1" vertex="1">
          <mxGeometry x="410" y="774" width="160" height="160" as="geometry" />
        </mxCell>
        <mxCell id="CZWm_Kjjg1r7m4dwWxef-141" value="id" style="shape=partialRectangle;top=0;left=0;right=0;bottom=1;align=left;verticalAlign=middle;fillColor=none;spacingLeft=34;spacingRight=4;overflow=hidden;rotatable=0;points=[[0,0.5],[1,0.5]];portConstraint=eastwest;dropTarget=0;fontStyle=1;fontSize=12;" parent="CZWm_Kjjg1r7m4dwWxef-140" vertex="1">
          <mxGeometry y="26" width="160" height="30" as="geometry" />
        </mxCell>
        <mxCell id="CZWm_Kjjg1r7m4dwWxef-142" value="PK" style="shape=partialRectangle;top=0;left=0;bottom=0;fillColor=none;align=left;verticalAlign=middle;spacingLeft=4;spacingRight=4;overflow=hidden;rotatable=0;points=[];portConstraint=eastwest;part=1;fontSize=12;fontStyle=1" parent="CZWm_Kjjg1r7m4dwWxef-141" vertex="1" connectable="0">
          <mxGeometry width="30" height="30" as="geometry" />
        </mxCell>
        <mxCell id="CZWm_Kjjg1r7m4dwWxef-143" value="gruppe_id" style="shape=partialRectangle;top=0;left=0;right=0;bottom=0;align=left;verticalAlign=top;fillColor=none;spacingLeft=34;spacingRight=4;overflow=hidden;rotatable=0;points=[[0,0.5],[1,0.5]];portConstraint=eastwest;dropTarget=0;fontSize=12;fontStyle=2" parent="CZWm_Kjjg1r7m4dwWxef-140" vertex="1">
          <mxGeometry y="56" width="160" height="26" as="geometry" />
        </mxCell>
        <mxCell id="CZWm_Kjjg1r7m4dwWxef-144" value="FK" style="shape=partialRectangle;top=0;left=0;bottom=0;fillColor=none;align=left;verticalAlign=top;spacingLeft=4;spacingRight=4;overflow=hidden;rotatable=0;points=[];portConstraint=eastwest;part=1;fontSize=12;" parent="CZWm_Kjjg1r7m4dwWxef-143" vertex="1" connectable="0">
          <mxGeometry width="30" height="26" as="geometry" />
        </mxCell>
        <mxCell id="CZWm_Kjjg1r7m4dwWxef-145" value="student_id" style="shape=partialRectangle;top=0;left=0;right=0;bottom=0;align=left;verticalAlign=top;fillColor=none;spacingLeft=34;spacingRight=4;overflow=hidden;rotatable=0;points=[[0,0.5],[1,0.5]];portConstraint=eastwest;dropTarget=0;fontSize=12;fontStyle=2" parent="CZWm_Kjjg1r7m4dwWxef-140" vertex="1">
          <mxGeometry y="82" width="160" height="26" as="geometry" />
        </mxCell>
        <mxCell id="CZWm_Kjjg1r7m4dwWxef-146" value="FK" style="shape=partialRectangle;top=0;left=0;bottom=0;fillColor=none;align=left;verticalAlign=top;spacingLeft=4;spacingRight=4;overflow=hidden;rotatable=0;points=[];portConstraint=eastwest;part=1;fontSize=12;" parent="CZWm_Kjjg1r7m4dwWxef-145" vertex="1" connectable="0">
          <mxGeometry width="30" height="26" as="geometry" />
        </mxCell>
        <mxCell id="CZWm_Kjjg1r7m4dwWxef-147" value="datum" style="shape=partialRectangle;top=0;left=0;right=0;bottom=0;align=left;verticalAlign=top;fillColor=none;spacingLeft=34;spacingRight=4;overflow=hidden;rotatable=0;points=[[0,0.5],[1,0.5]];portConstraint=eastwest;dropTarget=0;fontSize=12;" parent="CZWm_Kjjg1r7m4dwWxef-140" vertex="1">
          <mxGeometry y="108" width="160" height="26" as="geometry" />
        </mxCell>
        <mxCell id="CZWm_Kjjg1r7m4dwWxef-148" value="" style="shape=partialRectangle;top=0;left=0;bottom=0;fillColor=none;align=left;verticalAlign=top;spacingLeft=4;spacingRight=4;overflow=hidden;rotatable=0;points=[];portConstraint=eastwest;part=1;fontSize=12;" parent="CZWm_Kjjg1r7m4dwWxef-147" vertex="1" connectable="0">
          <mxGeometry width="30" height="26" as="geometry" />
        </mxCell>
        <mxCell id="CZWm_Kjjg1r7m4dwWxef-151" value="nachricht" style="shape=partialRectangle;top=0;left=0;right=0;bottom=0;align=left;verticalAlign=top;fillColor=none;spacingLeft=34;spacingRight=4;overflow=hidden;rotatable=0;points=[[0,0.5],[1,0.5]];portConstraint=eastwest;dropTarget=0;fontSize=12;" parent="CZWm_Kjjg1r7m4dwWxef-140" vertex="1">
          <mxGeometry y="134" width="160" height="26" as="geometry" />
        </mxCell>
        <mxCell id="CZWm_Kjjg1r7m4dwWxef-152" value="" style="shape=partialRectangle;top=0;left=0;bottom=0;fillColor=none;align=left;verticalAlign=top;spacingLeft=4;spacingRight=4;overflow=hidden;rotatable=0;points=[];portConstraint=eastwest;part=1;fontSize=12;" parent="CZWm_Kjjg1r7m4dwWxef-151" vertex="1" connectable="0">
          <mxGeometry width="30" height="26" as="geometry" />
        </mxCell>
        <mxCell id="CZWm_Kjjg1r7m4dwWxef-168" value="GruppenAnfrage" style="swimlane;fontStyle=0;childLayout=stackLayout;horizontal=1;startSize=26;horizontalStack=0;resizeParent=1;resizeParentMax=0;resizeLast=0;collapsible=1;marginBottom=0;align=center;fontSize=14;" parent="1" vertex="1">
          <mxGeometry x="410" y="954" width="160" height="104" as="geometry" />
        </mxCell>
        <mxCell id="CZWm_Kjjg1r7m4dwWxef-169" value="gruppe_id" style="shape=partialRectangle;top=0;left=0;right=0;bottom=0;align=left;verticalAlign=top;fillColor=none;spacingLeft=34;spacingRight=4;overflow=hidden;rotatable=0;points=[[0,0.5],[1,0.5]];portConstraint=eastwest;dropTarget=0;fontSize=12;fontStyle=2" parent="CZWm_Kjjg1r7m4dwWxef-168" vertex="1">
          <mxGeometry y="26" width="160" height="26" as="geometry" />
        </mxCell>
        <mxCell id="CZWm_Kjjg1r7m4dwWxef-170" value="FK" style="shape=partialRectangle;top=0;left=0;bottom=0;fillColor=none;align=left;verticalAlign=top;spacingLeft=4;spacingRight=4;overflow=hidden;rotatable=0;points=[];portConstraint=eastwest;part=1;fontSize=12;" parent="CZWm_Kjjg1r7m4dwWxef-169" vertex="1" connectable="0">
          <mxGeometry width="30" height="26" as="geometry" />
        </mxCell>
        <mxCell id="CZWm_Kjjg1r7m4dwWxef-171" value="student_id" style="shape=partialRectangle;top=0;left=0;right=0;bottom=0;align=left;verticalAlign=top;fillColor=none;spacingLeft=34;spacingRight=4;overflow=hidden;rotatable=0;points=[[0,0.5],[1,0.5]];portConstraint=eastwest;dropTarget=0;fontSize=12;fontStyle=2" parent="CZWm_Kjjg1r7m4dwWxef-168" vertex="1">
          <mxGeometry y="52" width="160" height="26" as="geometry" />
        </mxCell>
        <mxCell id="CZWm_Kjjg1r7m4dwWxef-172" value="FK" style="shape=partialRectangle;top=0;left=0;bottom=0;fillColor=none;align=left;verticalAlign=top;spacingLeft=4;spacingRight=4;overflow=hidden;rotatable=0;points=[];portConstraint=eastwest;part=1;fontSize=12;" parent="CZWm_Kjjg1r7m4dwWxef-171" vertex="1" connectable="0">
          <mxGeometry width="30" height="26" as="geometry" />
        </mxCell>
        <mxCell id="CZWm_Kjjg1r7m4dwWxef-173" value="datum" style="shape=partialRectangle;top=0;left=0;right=0;bottom=0;align=left;verticalAlign=top;fillColor=none;spacingLeft=34;spacingRight=4;overflow=hidden;rotatable=0;points=[[0,0.5],[1,0.5]];portConstraint=eastwest;dropTarget=0;fontSize=12;" parent="CZWm_Kjjg1r7m4dwWxef-168" vertex="1">
          <mxGeometry y="78" width="160" height="26" as="geometry" />
        </mxCell>
        <mxCell id="CZWm_Kjjg1r7m4dwWxef-174" value="" style="shape=partialRectangle;top=0;left=0;bottom=0;fillColor=none;align=left;verticalAlign=top;spacingLeft=4;spacingRight=4;overflow=hidden;rotatable=0;points=[];portConstraint=eastwest;part=1;fontSize=12;" parent="CZWm_Kjjg1r7m4dwWxef-173" vertex="1" connectable="0">
          <mxGeometry width="30" height="26" as="geometry" />
        </mxCell>
        <mxCell id="QtLXU1wTtizaAyf6Qufu-8" value="Gruppe_Student" style="swimlane;fontStyle=0;childLayout=stackLayout;horizontal=1;startSize=26;horizontalStack=0;resizeParent=1;resizeParentMax=0;resizeLast=0;collapsible=1;marginBottom=0;align=center;fontSize=14;" parent="1" vertex="1">
          <mxGeometry x="410" y="642" width="160" height="112" as="geometry" />
        </mxCell>
        <mxCell id="QtLXU1wTtizaAyf6Qufu-9" value="gruppe_id" style="shape=partialRectangle;top=0;left=0;right=0;bottom=0;align=left;verticalAlign=middle;fillColor=none;spacingLeft=60;spacingRight=4;overflow=hidden;rotatable=0;points=[[0,0.5],[1,0.5]];portConstraint=eastwest;dropTarget=0;fontStyle=3;fontSize=12;" parent="QtLXU1wTtizaAyf6Qufu-8" vertex="1">
          <mxGeometry y="26" width="160" height="30" as="geometry" />
        </mxCell>
        <mxCell id="QtLXU1wTtizaAyf6Qufu-10" value="PK, FK1" style="shape=partialRectangle;fontStyle=1;top=0;left=0;bottom=0;fillColor=none;align=left;verticalAlign=middle;spacingLeft=4;spacingRight=4;overflow=hidden;rotatable=0;points=[];portConstraint=eastwest;part=1;fontSize=12;" parent="QtLXU1wTtizaAyf6Qufu-9" vertex="1" connectable="0">
          <mxGeometry width="56" height="30" as="geometry" />
        </mxCell>
        <mxCell id="QtLXU1wTtizaAyf6Qufu-11" value="student_id" style="shape=partialRectangle;top=0;left=0;right=0;bottom=1;align=left;verticalAlign=middle;fillColor=none;spacingLeft=60;spacingRight=4;overflow=hidden;rotatable=0;points=[[0,0.5],[1,0.5]];portConstraint=eastwest;dropTarget=0;fontStyle=3;fontSize=12;" parent="QtLXU1wTtizaAyf6Qufu-8" vertex="1">
          <mxGeometry y="56" width="160" height="30" as="geometry" />
        </mxCell>
        <mxCell id="QtLXU1wTtizaAyf6Qufu-12" value="PK, FK2" style="shape=partialRectangle;fontStyle=1;top=0;left=0;bottom=0;fillColor=none;align=left;verticalAlign=middle;spacingLeft=4;spacingRight=4;overflow=hidden;rotatable=0;points=[];portConstraint=eastwest;part=1;fontSize=12;" parent="QtLXU1wTtizaAyf6Qufu-11" vertex="1" connectable="0">
          <mxGeometry width="56" height="30" as="geometry" />
        </mxCell>
        <mxCell id="QtLXU1wTtizaAyf6Qufu-13" value="beitrittsdatum" style="shape=partialRectangle;top=0;left=0;right=0;bottom=0;align=left;verticalAlign=top;fillColor=none;spacingLeft=60;spacingRight=4;overflow=hidden;rotatable=0;points=[[0,0.5],[1,0.5]];portConstraint=eastwest;dropTarget=0;fontSize=12;" parent="QtLXU1wTtizaAyf6Qufu-8" vertex="1">
          <mxGeometry y="86" width="160" height="26" as="geometry" />
        </mxCell>
        <mxCell id="QtLXU1wTtizaAyf6Qufu-14" value="" style="shape=partialRectangle;top=0;left=0;bottom=0;fillColor=none;align=left;verticalAlign=top;spacingLeft=4;spacingRight=4;overflow=hidden;rotatable=0;points=[];portConstraint=eastwest;part=1;fontSize=12;" parent="QtLXU1wTtizaAyf6Qufu-13" vertex="1" connectable="0">
          <mxGeometry width="56" height="26" as="geometry" />
        </mxCell>
        <mxCell id="q0ngvxd6lDWXGjiL8JKx-12" value="Studiengang" style="swimlane;fontStyle=0;childLayout=stackLayout;horizontal=1;startSize=26;horizontalStack=0;resizeParent=1;resizeParentMax=0;resizeLast=0;collapsible=1;marginBottom=0;align=center;fontSize=14;" parent="1" vertex="1">
          <mxGeometry x="360" y="204" width="160" height="134" as="geometry" />
        </mxCell>
        <mxCell id="q0ngvxd6lDWXGjiL8JKx-13" value="id" style="shape=partialRectangle;top=0;left=0;right=0;bottom=1;align=left;verticalAlign=middle;fillColor=none;spacingLeft=34;spacingRight=4;overflow=hidden;rotatable=0;points=[[0,0.5],[1,0.5]];portConstraint=eastwest;dropTarget=0;fontStyle=1;fontSize=12;" parent="q0ngvxd6lDWXGjiL8JKx-12" vertex="1">
          <mxGeometry y="26" width="160" height="30" as="geometry" />
        </mxCell>
        <mxCell id="q0ngvxd6lDWXGjiL8JKx-14" value="PK" style="shape=partialRectangle;top=0;left=0;bottom=0;fillColor=none;align=left;verticalAlign=middle;spacingLeft=4;spacingRight=4;overflow=hidden;rotatable=0;points=[];portConstraint=eastwest;part=1;fontSize=12;fontStyle=1" parent="q0ngvxd6lDWXGjiL8JKx-13" vertex="1" connectable="0">
          <mxGeometry width="30" height="30" as="geometry" />
        </mxCell>
        <mxCell id="q0ngvxd6lDWXGjiL8JKx-15" value="name" style="shape=partialRectangle;top=0;left=0;right=0;bottom=0;align=left;verticalAlign=top;fillColor=none;spacingLeft=34;spacingRight=4;overflow=hidden;rotatable=0;points=[[0,0.5],[1,0.5]];portConstraint=eastwest;dropTarget=0;fontSize=12;" parent="q0ngvxd6lDWXGjiL8JKx-12" vertex="1">
          <mxGeometry y="56" width="160" height="26" as="geometry" />
        </mxCell>
        <mxCell id="q0ngvxd6lDWXGjiL8JKx-16" value="" style="shape=partialRectangle;top=0;left=0;bottom=0;fillColor=none;align=left;verticalAlign=top;spacingLeft=4;spacingRight=4;overflow=hidden;rotatable=0;points=[];portConstraint=eastwest;part=1;fontSize=12;" parent="q0ngvxd6lDWXGjiL8JKx-15" vertex="1" connectable="0">
          <mxGeometry width="30" height="26" as="geometry" />
        </mxCell>
        <mxCell id="q0ngvxd6lDWXGjiL8JKx-17" value="fakultaet_id" style="shape=partialRectangle;top=0;left=0;right=0;bottom=0;align=left;verticalAlign=top;fillColor=none;spacingLeft=34;spacingRight=4;overflow=hidden;rotatable=0;points=[[0,0.5],[1,0.5]];portConstraint=eastwest;dropTarget=0;fontSize=12;fontStyle=2" parent="q0ngvxd6lDWXGjiL8JKx-12" vertex="1">
          <mxGeometry y="82" width="160" height="26" as="geometry" />
        </mxCell>
        <mxCell id="q0ngvxd6lDWXGjiL8JKx-18" value="FK" style="shape=partialRectangle;top=0;left=0;bottom=0;fillColor=none;align=left;verticalAlign=top;spacingLeft=4;spacingRight=4;overflow=hidden;rotatable=0;points=[];portConstraint=eastwest;part=1;fontSize=12;" parent="q0ngvxd6lDWXGjiL8JKx-17" vertex="1" connectable="0">
          <mxGeometry width="30" height="26" as="geometry" />
        </mxCell>
        <mxCell id="q0ngvxd6lDWXGjiL8JKx-19" value="abschluss" style="shape=partialRectangle;top=0;left=0;right=0;bottom=0;align=left;verticalAlign=top;fillColor=none;spacingLeft=34;spacingRight=4;overflow=hidden;rotatable=0;points=[[0,0.5],[1,0.5]];portConstraint=eastwest;dropTarget=0;fontSize=12;" parent="q0ngvxd6lDWXGjiL8JKx-12" vertex="1">
          <mxGeometry y="108" width="160" height="26" as="geometry" />
        </mxCell>
        <mxCell id="q0ngvxd6lDWXGjiL8JKx-20" value="" style="shape=partialRectangle;top=0;left=0;bottom=0;fillColor=none;align=left;verticalAlign=top;spacingLeft=4;spacingRight=4;overflow=hidden;rotatable=0;points=[];portConstraint=eastwest;part=1;fontSize=12;" parent="q0ngvxd6lDWXGjiL8JKx-19" vertex="1" connectable="0">
          <mxGeometry width="30" height="26" as="geometry" />
        </mxCell>
        <mxCell id="CZWm_Kjjg1r7m4dwWxef-1" value="Modul" style="swimlane;fontStyle=0;childLayout=stackLayout;horizontal=1;startSize=26;horizontalStack=0;resizeParent=1;resizeParentMax=0;resizeLast=0;collapsible=1;marginBottom=0;align=center;fontSize=14;" parent="1" vertex="1">
          <mxGeometry x="64" y="204" width="160" height="134" as="geometry" />
        </mxCell>
        <mxCell id="CZWm_Kjjg1r7m4dwWxef-2" value="id" style="shape=partialRectangle;top=0;left=0;right=0;bottom=1;align=left;verticalAlign=middle;fillColor=none;spacingLeft=34;spacingRight=4;overflow=hidden;rotatable=0;points=[[0,0.5],[1,0.5]];portConstraint=eastwest;dropTarget=0;fontStyle=1;fontSize=12;" parent="CZWm_Kjjg1r7m4dwWxef-1" vertex="1">
          <mxGeometry y="26" width="160" height="30" as="geometry" />
        </mxCell>
        <mxCell id="CZWm_Kjjg1r7m4dwWxef-3" value="PK" style="shape=partialRectangle;top=0;left=0;bottom=0;fillColor=none;align=left;verticalAlign=middle;spacingLeft=4;spacingRight=4;overflow=hidden;rotatable=0;points=[];portConstraint=eastwest;part=1;fontSize=12;fontStyle=1" parent="CZWm_Kjjg1r7m4dwWxef-2" vertex="1" connectable="0">
          <mxGeometry width="30" height="30" as="geometry" />
        </mxCell>
        <mxCell id="CZWm_Kjjg1r7m4dwWxef-4" value="name" style="shape=partialRectangle;top=0;left=0;right=0;bottom=0;align=left;verticalAlign=top;fillColor=none;spacingLeft=34;spacingRight=4;overflow=hidden;rotatable=0;points=[[0,0.5],[1,0.5]];portConstraint=eastwest;dropTarget=0;fontSize=12;" parent="CZWm_Kjjg1r7m4dwWxef-1" vertex="1">
          <mxGeometry y="56" width="160" height="26" as="geometry" />
        </mxCell>
        <mxCell id="CZWm_Kjjg1r7m4dwWxef-5" value="" style="shape=partialRectangle;top=0;left=0;bottom=0;fillColor=none;align=left;verticalAlign=top;spacingLeft=4;spacingRight=4;overflow=hidden;rotatable=0;points=[];portConstraint=eastwest;part=1;fontSize=12;" parent="CZWm_Kjjg1r7m4dwWxef-4" vertex="1" connectable="0">
          <mxGeometry width="30" height="26" as="geometry" />
        </mxCell>
        <mxCell id="CZWm_Kjjg1r7m4dwWxef-6" value="dozent" style="shape=partialRectangle;top=0;left=0;right=0;bottom=0;align=left;verticalAlign=top;fillColor=none;spacingLeft=34;spacingRight=4;overflow=hidden;rotatable=0;points=[[0,0.5],[1,0.5]];portConstraint=eastwest;dropTarget=0;fontSize=12;" parent="CZWm_Kjjg1r7m4dwWxef-1" vertex="1">
          <mxGeometry y="82" width="160" height="26" as="geometry" />
        </mxCell>
        <mxCell id="CZWm_Kjjg1r7m4dwWxef-7" value="" style="shape=partialRectangle;top=0;left=0;bottom=0;fillColor=none;align=left;verticalAlign=top;spacingLeft=4;spacingRight=4;overflow=hidden;rotatable=0;points=[];portConstraint=eastwest;part=1;fontSize=12;" parent="CZWm_Kjjg1r7m4dwWxef-6" vertex="1" connectable="0">
          <mxGeometry width="30" height="26" as="geometry" />
        </mxCell>
        <mxCell id="CZWm_Kjjg1r7m4dwWxef-12" value="semester" style="shape=partialRectangle;top=0;left=0;right=0;bottom=0;align=left;verticalAlign=top;fillColor=none;spacingLeft=34;spacingRight=4;overflow=hidden;rotatable=0;points=[[0,0.5],[1,0.5]];portConstraint=eastwest;dropTarget=0;fontSize=12;" parent="CZWm_Kjjg1r7m4dwWxef-1" vertex="1">
          <mxGeometry y="108" width="160" height="26" as="geometry" />
        </mxCell>
        <mxCell id="CZWm_Kjjg1r7m4dwWxef-13" value="null" style="shape=partialRectangle;top=0;left=0;bottom=0;fillColor=none;align=left;verticalAlign=top;spacingLeft=4;spacingRight=4;overflow=hidden;rotatable=0;points=[];portConstraint=eastwest;part=1;fontSize=12;" parent="CZWm_Kjjg1r7m4dwWxef-12" vertex="1" connectable="0">
          <mxGeometry width="30" height="26" as="geometry" />
        </mxCell>
        <mxCell id="q0ngvxd6lDWXGjiL8JKx-1" value="Fakultaet" style="swimlane;fontStyle=0;childLayout=stackLayout;horizontal=1;startSize=26;horizontalStack=0;resizeParent=1;resizeParentMax=0;resizeLast=0;collapsible=1;marginBottom=0;align=center;fontSize=14;" parent="1" vertex="1">
          <mxGeometry x="630" y="205" width="160" height="108" as="geometry" />
        </mxCell>
        <mxCell id="q0ngvxd6lDWXGjiL8JKx-2" value="id" style="shape=partialRectangle;top=0;left=0;right=0;bottom=1;align=left;verticalAlign=middle;fillColor=none;spacingLeft=34;spacingRight=4;overflow=hidden;rotatable=0;points=[[0,0.5],[1,0.5]];portConstraint=eastwest;dropTarget=0;fontStyle=1;fontSize=12;" parent="q0ngvxd6lDWXGjiL8JKx-1" vertex="1">
          <mxGeometry y="26" width="160" height="30" as="geometry" />
        </mxCell>
        <mxCell id="q0ngvxd6lDWXGjiL8JKx-3" value="PK" style="shape=partialRectangle;top=0;left=0;bottom=0;fillColor=none;align=left;verticalAlign=middle;spacingLeft=4;spacingRight=4;overflow=hidden;rotatable=0;points=[];portConstraint=eastwest;part=1;fontSize=12;fontStyle=1" parent="q0ngvxd6lDWXGjiL8JKx-2" vertex="1" connectable="0">
          <mxGeometry width="30" height="30" as="geometry" />
        </mxCell>
        <mxCell id="q0ngvxd6lDWXGjiL8JKx-4" value="name" style="shape=partialRectangle;top=0;left=0;right=0;bottom=0;align=left;verticalAlign=top;fillColor=none;spacingLeft=34;spacingRight=4;overflow=hidden;rotatable=0;points=[[0,0.5],[1,0.5]];portConstraint=eastwest;dropTarget=0;fontSize=12;" parent="q0ngvxd6lDWXGjiL8JKx-1" vertex="1">
          <mxGeometry y="56" width="160" height="26" as="geometry" />
        </mxCell>
        <mxCell id="q0ngvxd6lDWXGjiL8JKx-5" value="" style="shape=partialRectangle;top=0;left=0;bottom=0;fillColor=none;align=left;verticalAlign=top;spacingLeft=4;spacingRight=4;overflow=hidden;rotatable=0;points=[];portConstraint=eastwest;part=1;fontSize=12;" parent="q0ngvxd6lDWXGjiL8JKx-4" vertex="1" connectable="0">
          <mxGeometry width="30" height="26" as="geometry" />
        </mxCell>
        <mxCell id="q0ngvxd6lDWXGjiL8JKx-6" value="standort" style="shape=partialRectangle;top=0;left=0;right=0;bottom=0;align=left;verticalAlign=top;fillColor=none;spacingLeft=34;spacingRight=4;overflow=hidden;rotatable=0;points=[[0,0.5],[1,0.5]];portConstraint=eastwest;dropTarget=0;fontSize=12;" parent="q0ngvxd6lDWXGjiL8JKx-1" vertex="1">
          <mxGeometry y="82" width="160" height="26" as="geometry" />
        </mxCell>
        <mxCell id="q0ngvxd6lDWXGjiL8JKx-7" value="" style="shape=partialRectangle;top=0;left=0;bottom=0;fillColor=none;align=left;verticalAlign=top;spacingLeft=4;spacingRight=4;overflow=hidden;rotatable=0;points=[];portConstraint=eastwest;part=1;fontSize=12;" parent="q0ngvxd6lDWXGjiL8JKx-6" vertex="1" connectable="0">
          <mxGeometry width="30" height="26" as="geometry" />
        </mxCell>
        <mxCell id="A3N_dmrzNlg626EpN3l3-1" value="GruppenEinladung" style="swimlane;fontStyle=0;childLayout=stackLayout;horizontal=1;startSize=26;horizontalStack=0;resizeParent=1;resizeParentMax=0;resizeLast=0;collapsible=1;marginBottom=0;align=center;fontSize=14;" parent="1" vertex="1">
          <mxGeometry x="410" y="1080" width="160" height="134" as="geometry" />
        </mxCell>
        <mxCell id="A3N_dmrzNlg626EpN3l3-2" value="kennung" style="shape=partialRectangle;top=0;left=0;right=0;bottom=1;align=left;verticalAlign=middle;fillColor=none;spacingLeft=34;spacingRight=4;overflow=hidden;rotatable=0;points=[[0,0.5],[1,0.5]];portConstraint=eastwest;dropTarget=0;fontStyle=1;fontSize=12;" parent="A3N_dmrzNlg626EpN3l3-1" vertex="1">
          <mxGeometry y="26" width="160" height="30" as="geometry" />
        </mxCell>
        <mxCell id="A3N_dmrzNlg626EpN3l3-3" value="PK" style="shape=partialRectangle;top=0;left=0;bottom=0;fillColor=none;align=left;verticalAlign=middle;spacingLeft=4;spacingRight=4;overflow=hidden;rotatable=0;points=[];portConstraint=eastwest;part=1;fontSize=12;fontStyle=1" parent="A3N_dmrzNlg626EpN3l3-2" vertex="1" connectable="0">
          <mxGeometry width="30" height="30" as="geometry" />
        </mxCell>
        <mxCell id="A3N_dmrzNlg626EpN3l3-4" value="gruppe_id" style="shape=partialRectangle;top=0;left=0;right=0;bottom=0;align=left;verticalAlign=top;fillColor=none;spacingLeft=34;spacingRight=4;overflow=hidden;rotatable=0;points=[[0,0.5],[1,0.5]];portConstraint=eastwest;dropTarget=0;fontSize=12;fontStyle=2" parent="A3N_dmrzNlg626EpN3l3-1" vertex="1">
          <mxGeometry y="56" width="160" height="26" as="geometry" />
        </mxCell>
        <mxCell id="A3N_dmrzNlg626EpN3l3-5" value="FK" style="shape=partialRectangle;top=0;left=0;bottom=0;fillColor=none;align=left;verticalAlign=top;spacingLeft=4;spacingRight=4;overflow=hidden;rotatable=0;points=[];portConstraint=eastwest;part=1;fontSize=12;" parent="A3N_dmrzNlg626EpN3l3-4" vertex="1" connectable="0">
          <mxGeometry width="30" height="26" as="geometry" />
        </mxCell>
        <mxCell id="A3N_dmrzNlg626EpN3l3-8" value="ersteller_id" style="shape=partialRectangle;top=0;left=0;right=0;bottom=0;align=left;verticalAlign=top;fillColor=none;spacingLeft=34;spacingRight=4;overflow=hidden;rotatable=0;points=[[0,0.5],[1,0.5]];portConstraint=eastwest;dropTarget=0;fontSize=12;fontStyle=2" parent="A3N_dmrzNlg626EpN3l3-1" vertex="1">
          <mxGeometry y="82" width="160" height="26" as="geometry" />
        </mxCell>
        <mxCell id="A3N_dmrzNlg626EpN3l3-9" value="FK" style="shape=partialRectangle;top=0;left=0;bottom=0;fillColor=none;align=left;verticalAlign=top;spacingLeft=4;spacingRight=4;overflow=hidden;rotatable=0;points=[];portConstraint=eastwest;part=1;fontSize=12;" parent="A3N_dmrzNlg626EpN3l3-8" vertex="1" connectable="0">
          <mxGeometry width="30" height="26" as="geometry" />
        </mxCell>
        <mxCell id="A3N_dmrzNlg626EpN3l3-6" value="gueltig_bis" style="shape=partialRectangle;top=0;left=0;right=0;bottom=0;align=left;verticalAlign=top;fillColor=none;spacingLeft=34;spacingRight=4;overflow=hidden;rotatable=0;points=[[0,0.5],[1,0.5]];portConstraint=eastwest;dropTarget=0;fontSize=12;" parent="A3N_dmrzNlg626EpN3l3-1" vertex="1">
          <mxGeometry y="108" width="160" height="26" as="geometry" />
        </mxCell>
        <mxCell id="A3N_dmrzNlg626EpN3l3-7" value="null" style="shape=partialRectangle;top=0;left=0;bottom=0;fillColor=none;align=left;verticalAlign=top;spacingLeft=4;spacingRight=4;overflow=hidden;rotatable=0;points=[];portConstraint=eastwest;part=1;fontSize=12;" parent="A3N_dmrzNlg626EpN3l3-6" vertex="1" connectable="0">
          <mxGeometry width="30" height="26" as="geometry" />
        </mxCell>
        <mxCell id="A3N_dmrzNlg626EpN3l3-18" value="🠘 ist Teil von" style="text;strokeColor=none;fillColor=none;spacingLeft=4;spacingRight=4;overflow=hidden;rotatable=0;points=[[0,0.5],[1,0.5]];portConstraint=eastwest;fontSize=12;align=center;" parent="1" vertex="1">
          <mxGeometry x="444" y="616" width="92" height="26" as="geometry" />
        </mxCell>
        <mxCell id="CZWm_Kjjg1r7m4dwWxef-82" value="StudentVerifizierung" style="swimlane;fontStyle=0;childLayout=stackLayout;horizontal=1;startSize=26;horizontalStack=0;resizeParent=1;resizeParentMax=0;resizeLast=0;collapsible=1;marginBottom=0;align=center;fontSize=14;" parent="1" vertex="1">
          <mxGeometry x="841" y="297" width="160" height="82" as="geometry" />
        </mxCell>
        <mxCell id="CZWm_Kjjg1r7m4dwWxef-85" value="kennung" style="shape=partialRectangle;top=0;left=0;right=0;bottom=1;align=left;verticalAlign=middle;fillColor=none;spacingLeft=60;spacingRight=4;overflow=hidden;rotatable=0;points=[[0,0.5],[1,0.5]];portConstraint=eastwest;dropTarget=0;fontStyle=1;fontSize=12;" parent="CZWm_Kjjg1r7m4dwWxef-82" vertex="1">
          <mxGeometry y="26" width="160" height="30" as="geometry" />
        </mxCell>
        <mxCell id="CZWm_Kjjg1r7m4dwWxef-86" value="PK" style="shape=partialRectangle;fontStyle=1;top=0;left=0;bottom=0;fillColor=none;align=left;verticalAlign=middle;spacingLeft=4;spacingRight=4;overflow=hidden;rotatable=0;points=[];portConstraint=eastwest;part=1;fontSize=12;" parent="CZWm_Kjjg1r7m4dwWxef-85" vertex="1" connectable="0">
          <mxGeometry width="56" height="30" as="geometry" />
        </mxCell>
        <mxCell id="CZWm_Kjjg1r7m4dwWxef-87" value="student_id" style="shape=partialRectangle;top=0;left=0;right=0;bottom=0;align=left;verticalAlign=top;fillColor=none;spacingLeft=60;spacingRight=4;overflow=hidden;rotatable=0;points=[[0,0.5],[1,0.5]];portConstraint=eastwest;dropTarget=0;fontSize=12;fontStyle=2" parent="CZWm_Kjjg1r7m4dwWxef-82" vertex="1">
          <mxGeometry y="56" width="160" height="26" as="geometry" />
        </mxCell>
        <mxCell id="CZWm_Kjjg1r7m4dwWxef-88" value="FK, UQ" style="shape=partialRectangle;top=0;left=0;bottom=0;fillColor=none;align=left;verticalAlign=top;spacingLeft=4;spacingRight=4;overflow=hidden;rotatable=0;points=[];portConstraint=eastwest;part=1;fontSize=12;" parent="CZWm_Kjjg1r7m4dwWxef-87" vertex="1" connectable="0">
          <mxGeometry width="56" height="26" as="geometry" />
        </mxCell>
        <mxCell id="CZWm_Kjjg1r7m4dwWxef-89" value="StudentWiederherstellung" style="swimlane;fontStyle=0;childLayout=stackLayout;horizontal=1;startSize=26;horizontalStack=0;resizeParent=1;resizeParentMax=0;resizeLast=0;collapsible=1;marginBottom=0;align=center;fontSize=14;" parent="1" vertex="1">
          <mxGeometry x="841" y="396" width="210" height="82" as="geometry" />
        </mxCell>
        <mxCell id="CZWm_Kjjg1r7m4dwWxef-90" value="kennung" style="shape=partialRectangle;top=0;left=0;right=0;bottom=1;align=left;verticalAlign=middle;fillColor=none;spacingLeft=60;spacingRight=4;overflow=hidden;rotatable=0;points=[[0,0.5],[1,0.5]];portConstraint=eastwest;dropTarget=0;fontStyle=1;fontSize=12;" parent="CZWm_Kjjg1r7m4dwWxef-89" vertex="1">
          <mxGeometry y="26" width="210" height="30" as="geometry" />
        </mxCell>
        <mxCell id="CZWm_Kjjg1r7m4dwWxef-91" value="PK" style="shape=partialRectangle;fontStyle=1;top=0;left=0;bottom=0;fillColor=none;align=left;verticalAlign=middle;spacingLeft=4;spacingRight=4;overflow=hidden;rotatable=0;points=[];portConstraint=eastwest;part=1;fontSize=12;" parent="CZWm_Kjjg1r7m4dwWxef-90" vertex="1" connectable="0">
          <mxGeometry width="56" height="30" as="geometry" />
        </mxCell>
        <mxCell id="CZWm_Kjjg1r7m4dwWxef-92" value="student_id" style="shape=partialRectangle;top=0;left=0;right=0;bottom=0;align=left;verticalAlign=top;fillColor=none;spacingLeft=60;spacingRight=4;overflow=hidden;rotatable=0;points=[[0,0.5],[1,0.5]];portConstraint=eastwest;dropTarget=0;fontSize=12;fontStyle=2" parent="CZWm_Kjjg1r7m4dwWxef-89" vertex="1">
          <mxGeometry y="56" width="210" height="26" as="geometry" />
        </mxCell>
        <mxCell id="CZWm_Kjjg1r7m4dwWxef-93" value="FK, UQ" style="shape=partialRectangle;top=0;left=0;bottom=0;fillColor=none;align=left;verticalAlign=top;spacingLeft=4;spacingRight=4;overflow=hidden;rotatable=0;points=[];portConstraint=eastwest;part=1;fontSize=12;" parent="CZWm_Kjjg1r7m4dwWxef-92" vertex="1" connectable="0">
          <mxGeometry width="56" height="26" as="geometry" />
        </mxCell>
        <mxCell id="PJiDPuHt5pDFrAC0_JVK-1" value="&lt;span&gt;🠘&amp;nbsp;&lt;/span&gt;beherbergt" style="text;html=1;strokeColor=none;fillColor=none;align=center;verticalAlign=middle;whiteSpace=wrap;rounded=0;" parent="1" vertex="1">
          <mxGeometry x="539" y="218" width="80" height="30" as="geometry" />
        </mxCell>
        <mxCell id="PJiDPuHt5pDFrAC0_JVK-4" value="🠝 fällt unter" style="text;html=1;strokeColor=none;fillColor=none;align=center;verticalAlign=middle;whiteSpace=wrap;rounded=0;" parent="1" vertex="1">
          <mxGeometry x="70" y="422" width="74" height="30" as="geometry" />
        </mxCell>
        <mxCell id="PJiDPuHt5pDFrAC0_JVK-7" value="🠝 hat&amp;nbsp;" style="text;html=1;strokeColor=none;fillColor=none;align=center;verticalAlign=middle;whiteSpace=wrap;rounded=0;" parent="1" vertex="1">
          <mxGeometry x="350" y="476" width="40" height="28" as="geometry" />
        </mxCell>
        <mxCell id="PJiDPuHt5pDFrAC0_JVK-9" value="🠝 wurde verfasst von" style="text;html=1;strokeColor=none;fillColor=none;align=center;verticalAlign=middle;whiteSpace=wrap;rounded=0;" parent="1" vertex="1">
          <mxGeometry x="570" y="827" width="90" height="40" as="geometry" />
        </mxCell>
        <mxCell id="PJiDPuHt5pDFrAC0_JVK-10" value="🠘 ist eingeschrieben in" style="text;html=1;strokeColor=none;fillColor=none;align=center;verticalAlign=middle;whiteSpace=wrap;rounded=0;" parent="1" vertex="1">
          <mxGeometry x="441" y="461" width="140" height="29" as="geometry" />
        </mxCell>
        <mxCell id="PJiDPuHt5pDFrAC0_JVK-12" value="🠝 wurde gestellt von" style="text;html=1;strokeColor=none;fillColor=none;align=center;verticalAlign=middle;whiteSpace=wrap;rounded=0;" parent="1" vertex="1">
          <mxGeometry x="596" y="978" width="80" height="40" as="geometry" />
        </mxCell>
        <mxCell id="cg_qd-VSrTMG4W3GDi1b-1" value="🠝 wurde erstellt von" style="text;html=1;strokeColor=none;fillColor=none;align=center;verticalAlign=middle;whiteSpace=wrap;rounded=0;" parent="1" vertex="1">
          <mxGeometry x="610" y="1135" width="80" height="40" as="geometry" />
        </mxCell>
        <mxCell id="ecwwPdgX4rYmohQP9b-s-1" value="wurde erstellt von&amp;nbsp;🠞" style="text;html=1;strokeColor=none;fillColor=none;align=center;verticalAlign=middle;whiteSpace=wrap;rounded=0;" parent="1" vertex="1">
          <mxGeometry x="367" y="577" width="146" height="20" as="geometry" />
        </mxCell>
      </root>
    </mxGraphModel>
  </diagram>
  <diagram name="EERD" id="f0zVEqXEMDkOBknVs6ff">
    <mxGraphModel dx="669" dy="856" grid="1" gridSize="10" guides="1" tooltips="1" connect="1" arrows="1" fold="1" page="1" pageScale="1" pageWidth="1169" pageHeight="1654" math="0" shadow="0">
      <root>
        <mxCell id="7m6j2GZ988V0n2dbMLoH-0" />
        <mxCell id="7m6j2GZ988V0n2dbMLoH-1" parent="7m6j2GZ988V0n2dbMLoH-0" />
        <mxCell id="7m6j2GZ988V0n2dbMLoH-3" style="edgeStyle=orthogonalEdgeStyle;rounded=1;orthogonalLoop=1;jettySize=auto;html=1;startArrow=ERzeroToMany;startFill=1;endArrow=ERmandOne;endFill=0;exitX=0;exitY=0.5;exitDx=0;exitDy=0;dashed=1;" parent="7m6j2GZ988V0n2dbMLoH-1" source="7m6j2GZ988V0n2dbMLoH-51" target="7m6j2GZ988V0n2dbMLoH-98" edge="1">
          <mxGeometry relative="1" as="geometry" />
        </mxCell>
        <mxCell id="7m6j2GZ988V0n2dbMLoH-4" style="edgeStyle=orthogonalEdgeStyle;rounded=1;orthogonalLoop=1;jettySize=auto;html=1;startArrow=ERzeroToOne;startFill=1;endArrow=ERmandOne;endFill=0;strokeColor=#000000;exitX=0;exitY=0.5;exitDx=0;exitDy=0;entryX=1;entryY=0.3;entryDx=0;entryDy=0;entryPerimeter=0;dashed=1;" parent="7m6j2GZ988V0n2dbMLoH-1" source="7m6j2GZ988V0n2dbMLoH-71" target="7m6j2GZ988V0n2dbMLoH-45" edge="1">
          <mxGeometry relative="1" as="geometry">
            <mxPoint x="676" y="724" as="sourcePoint" />
          </mxGeometry>
        </mxCell>
        <mxCell id="7m6j2GZ988V0n2dbMLoH-5" style="edgeStyle=orthogonalEdgeStyle;rounded=1;orthogonalLoop=1;jettySize=auto;html=1;startArrow=ERzeroToMany;startFill=1;endArrow=ERoneToMany;endFill=0;strokeColor=#000000;" parent="7m6j2GZ988V0n2dbMLoH-1" source="7m6j2GZ988V0n2dbMLoH-114" target="7m6j2GZ988V0n2dbMLoH-98" edge="1">
          <mxGeometry relative="1" as="geometry">
            <mxPoint x="250" y="220" as="targetPoint" />
          </mxGeometry>
        </mxCell>
        <mxCell id="7m6j2GZ988V0n2dbMLoH-6" style="edgeStyle=orthogonalEdgeStyle;rounded=1;orthogonalLoop=1;jettySize=auto;html=1;startArrow=ERzeroToMany;startFill=1;endArrow=ERmandOne;endFill=0;strokeColor=#000000;exitX=0;exitY=0.5;exitDx=0;exitDy=0;dashed=1;" parent="7m6j2GZ988V0n2dbMLoH-1" source="7m6j2GZ988V0n2dbMLoH-12" target="7m6j2GZ988V0n2dbMLoH-114" edge="1">
          <mxGeometry relative="1" as="geometry" />
        </mxCell>
        <mxCell id="7m6j2GZ988V0n2dbMLoH-8" style="edgeStyle=orthogonalEdgeStyle;rounded=1;orthogonalLoop=1;jettySize=auto;html=1;entryX=1;entryY=0.733;entryDx=0;entryDy=0;startArrow=ERzeroToOne;startFill=1;endArrow=ERmandOne;endFill=0;strokeColor=#000000;entryPerimeter=0;exitX=0;exitY=0.5;exitDx=0;exitDy=0;dashed=1;" parent="7m6j2GZ988V0n2dbMLoH-1" source="7m6j2GZ988V0n2dbMLoH-66" target="7m6j2GZ988V0n2dbMLoH-45" edge="1">
          <mxGeometry relative="1" as="geometry" />
        </mxCell>
        <mxCell id="7m6j2GZ988V0n2dbMLoH-9" value="Gruppe" style="swimlane;fontStyle=0;childLayout=stackLayout;horizontal=1;startSize=26;horizontalStack=0;resizeParent=1;resizeParentMax=0;resizeLast=0;collapsible=1;marginBottom=0;align=center;fontSize=14;" parent="7m6j2GZ988V0n2dbMLoH-1" vertex="1">
          <mxGeometry x="186" y="504" width="160" height="264" as="geometry" />
        </mxCell>
        <mxCell id="7m6j2GZ988V0n2dbMLoH-10" value="id" style="shape=partialRectangle;top=0;left=0;right=0;bottom=1;align=left;verticalAlign=middle;fillColor=none;spacingLeft=34;spacingRight=4;overflow=hidden;rotatable=0;points=[[0,0.5],[1,0.5]];portConstraint=eastwest;dropTarget=0;fontStyle=1;fontSize=12;" parent="7m6j2GZ988V0n2dbMLoH-9" vertex="1">
          <mxGeometry y="26" width="160" height="30" as="geometry" />
        </mxCell>
        <mxCell id="7m6j2GZ988V0n2dbMLoH-11" value="PK" style="shape=partialRectangle;top=0;left=0;bottom=0;fillColor=none;align=left;verticalAlign=middle;spacingLeft=4;spacingRight=4;overflow=hidden;rotatable=0;points=[];portConstraint=eastwest;part=1;fontSize=12;fontStyle=1" parent="7m6j2GZ988V0n2dbMLoH-10" vertex="1" connectable="0">
          <mxGeometry width="30" height="30" as="geometry" />
        </mxCell>
        <mxCell id="7m6j2GZ988V0n2dbMLoH-12" value="modul_id" style="shape=partialRectangle;top=0;left=0;right=0;bottom=0;align=left;verticalAlign=top;fillColor=none;spacingLeft=34;spacingRight=4;overflow=hidden;rotatable=0;points=[[0,0.5],[1,0.5]];portConstraint=eastwest;dropTarget=0;fontSize=12;fontStyle=2" parent="7m6j2GZ988V0n2dbMLoH-9" vertex="1">
          <mxGeometry y="56" width="160" height="26" as="geometry" />
        </mxCell>
        <mxCell id="7m6j2GZ988V0n2dbMLoH-13" value="FK" style="shape=partialRectangle;top=0;left=0;bottom=0;fillColor=none;align=left;verticalAlign=top;spacingLeft=4;spacingRight=4;overflow=hidden;rotatable=0;points=[];portConstraint=eastwest;part=1;fontSize=12;" parent="7m6j2GZ988V0n2dbMLoH-12" vertex="1" connectable="0">
          <mxGeometry width="30" height="26" as="geometry" />
        </mxCell>
        <mxCell id="7m6j2GZ988V0n2dbMLoH-14" value="ersteller_id" style="shape=partialRectangle;top=0;left=0;right=0;bottom=0;align=left;verticalAlign=top;fillColor=none;spacingLeft=34;spacingRight=4;overflow=hidden;rotatable=0;points=[[0,0.5],[1,0.5]];portConstraint=eastwest;dropTarget=0;fontSize=12;fontStyle=2" parent="7m6j2GZ988V0n2dbMLoH-9" vertex="1">
          <mxGeometry y="82" width="160" height="26" as="geometry" />
        </mxCell>
        <mxCell id="7m6j2GZ988V0n2dbMLoH-15" value="FK" style="shape=partialRectangle;top=0;left=0;bottom=0;fillColor=none;align=left;verticalAlign=top;spacingLeft=4;spacingRight=4;overflow=hidden;rotatable=0;points=[];portConstraint=eastwest;part=1;fontSize=12;" parent="7m6j2GZ988V0n2dbMLoH-14" vertex="1" connectable="0">
          <mxGeometry width="30" height="26" as="geometry" />
        </mxCell>
        <mxCell id="7m6j2GZ988V0n2dbMLoH-16" value="name" style="shape=partialRectangle;top=0;left=0;right=0;bottom=0;align=left;verticalAlign=top;fillColor=none;spacingLeft=34;spacingRight=4;overflow=hidden;rotatable=0;points=[[0,0.5],[1,0.5]];portConstraint=eastwest;dropTarget=0;fontSize=12;" parent="7m6j2GZ988V0n2dbMLoH-9" vertex="1">
          <mxGeometry y="108" width="160" height="26" as="geometry" />
        </mxCell>
        <mxCell id="7m6j2GZ988V0n2dbMLoH-17" value="" style="shape=partialRectangle;top=0;left=0;bottom=0;fillColor=none;align=left;verticalAlign=top;spacingLeft=4;spacingRight=4;overflow=hidden;rotatable=0;points=[];portConstraint=eastwest;part=1;fontSize=12;" parent="7m6j2GZ988V0n2dbMLoH-16" vertex="1" connectable="0">
          <mxGeometry width="30" height="26" as="geometry" />
        </mxCell>
        <mxCell id="7m6j2GZ988V0n2dbMLoH-18" value="limit = 8" style="shape=partialRectangle;top=0;left=0;right=0;bottom=0;align=left;verticalAlign=top;fillColor=none;spacingLeft=34;spacingRight=4;overflow=hidden;rotatable=0;points=[[0,0.5],[1,0.5]];portConstraint=eastwest;dropTarget=0;fontSize=12;" parent="7m6j2GZ988V0n2dbMLoH-9" vertex="1">
          <mxGeometry y="134" width="160" height="26" as="geometry" />
        </mxCell>
        <mxCell id="7m6j2GZ988V0n2dbMLoH-19" value="" style="shape=partialRectangle;top=0;left=0;bottom=0;fillColor=none;align=left;verticalAlign=top;spacingLeft=4;spacingRight=4;overflow=hidden;rotatable=0;points=[];portConstraint=eastwest;part=1;fontSize=12;" parent="7m6j2GZ988V0n2dbMLoH-18" vertex="1" connectable="0">
          <mxGeometry width="30" height="26" as="geometry" />
        </mxCell>
        <mxCell id="7m6j2GZ988V0n2dbMLoH-20" value="oeffentlich = true" style="shape=partialRectangle;top=0;left=0;right=0;bottom=0;align=left;verticalAlign=top;fillColor=none;spacingLeft=34;spacingRight=4;overflow=hidden;rotatable=0;points=[[0,0.5],[1,0.5]];portConstraint=eastwest;dropTarget=0;fontSize=12;" parent="7m6j2GZ988V0n2dbMLoH-9" vertex="1">
          <mxGeometry y="160" width="160" height="26" as="geometry" />
        </mxCell>
        <mxCell id="7m6j2GZ988V0n2dbMLoH-21" value="" style="shape=partialRectangle;top=0;left=0;bottom=0;fillColor=none;align=left;verticalAlign=top;spacingLeft=4;spacingRight=4;overflow=hidden;rotatable=0;points=[];portConstraint=eastwest;part=1;fontSize=12;" parent="7m6j2GZ988V0n2dbMLoH-20" vertex="1" connectable="0">
          <mxGeometry width="30" height="26" as="geometry" />
        </mxCell>
        <mxCell id="7m6j2GZ988V0n2dbMLoH-22" value="betretbar = false" style="shape=partialRectangle;top=0;left=0;right=0;bottom=0;align=left;verticalAlign=top;fillColor=none;spacingLeft=34;spacingRight=4;overflow=hidden;rotatable=0;points=[[0,0.5],[1,0.5]];portConstraint=eastwest;dropTarget=0;fontSize=12;" parent="7m6j2GZ988V0n2dbMLoH-9" vertex="1">
          <mxGeometry y="186" width="160" height="26" as="geometry" />
        </mxCell>
        <mxCell id="7m6j2GZ988V0n2dbMLoH-23" value="" style="shape=partialRectangle;top=0;left=0;bottom=0;fillColor=none;align=left;verticalAlign=top;spacingLeft=4;spacingRight=4;overflow=hidden;rotatable=0;points=[];portConstraint=eastwest;part=1;fontSize=12;" parent="7m6j2GZ988V0n2dbMLoH-22" vertex="1" connectable="0">
          <mxGeometry width="30" height="26" as="geometry" />
        </mxCell>
        <mxCell id="7m6j2GZ988V0n2dbMLoH-24" value="deadline" style="shape=partialRectangle;top=0;left=0;right=0;bottom=0;align=left;verticalAlign=top;fillColor=none;spacingLeft=34;spacingRight=4;overflow=hidden;rotatable=0;points=[[0,0.5],[1,0.5]];portConstraint=eastwest;dropTarget=0;fontSize=12;" parent="7m6j2GZ988V0n2dbMLoH-9" vertex="1">
          <mxGeometry y="212" width="160" height="26" as="geometry" />
        </mxCell>
        <mxCell id="7m6j2GZ988V0n2dbMLoH-25" value="null" style="shape=partialRectangle;top=0;left=0;bottom=0;fillColor=none;align=left;verticalAlign=top;spacingLeft=4;spacingRight=4;overflow=hidden;rotatable=0;points=[];portConstraint=eastwest;part=1;fontSize=12;" parent="7m6j2GZ988V0n2dbMLoH-24" vertex="1" connectable="0">
          <mxGeometry width="30" height="26" as="geometry" />
        </mxCell>
        <mxCell id="7m6j2GZ988V0n2dbMLoH-26" value="ort" style="shape=partialRectangle;top=0;left=0;right=0;bottom=0;align=left;verticalAlign=top;fillColor=none;spacingLeft=34;spacingRight=4;overflow=hidden;rotatable=0;points=[[0,0.5],[1,0.5]];portConstraint=eastwest;dropTarget=0;fontSize=12;" parent="7m6j2GZ988V0n2dbMLoH-9" vertex="1">
          <mxGeometry y="238" width="160" height="26" as="geometry" />
        </mxCell>
        <mxCell id="7m6j2GZ988V0n2dbMLoH-27" value="null" style="shape=partialRectangle;top=0;left=0;bottom=0;fillColor=none;align=left;verticalAlign=top;spacingLeft=4;spacingRight=4;overflow=hidden;rotatable=0;points=[];portConstraint=eastwest;part=1;fontSize=12;" parent="7m6j2GZ988V0n2dbMLoH-26" vertex="1" connectable="0">
          <mxGeometry width="30" height="26" as="geometry" />
        </mxCell>
        <mxCell id="7m6j2GZ988V0n2dbMLoH-29" style="edgeStyle=orthogonalEdgeStyle;rounded=1;orthogonalLoop=1;jettySize=auto;html=1;startArrow=ERzeroToMany;startFill=1;endArrow=ERmandOne;endFill=0;strokeColor=#000000;entryX=0.4;entryY=1;entryDx=0;entryDy=0;entryPerimeter=0;exitX=1;exitY=0.5;exitDx=0;exitDy=0;dashed=1;" parent="7m6j2GZ988V0n2dbMLoH-1" source="7m6j2GZ988V0n2dbMLoH-78" target="7m6j2GZ988V0n2dbMLoH-61" edge="1">
          <mxGeometry relative="1" as="geometry" />
        </mxCell>
        <mxCell id="7m6j2GZ988V0n2dbMLoH-30" style="edgeStyle=orthogonalEdgeStyle;rounded=1;orthogonalLoop=1;jettySize=auto;html=1;startArrow=ERzeroToMany;startFill=1;endArrow=ERmandOne;endFill=0;strokeColor=#000000;exitX=0;exitY=0.5;exitDx=0;exitDy=0;entryX=0.75;entryY=0.962;entryDx=0;entryDy=0;entryPerimeter=0;dashed=1;" parent="7m6j2GZ988V0n2dbMLoH-1" source="7m6j2GZ988V0n2dbMLoH-76" target="7m6j2GZ988V0n2dbMLoH-26" edge="1">
          <mxGeometry relative="1" as="geometry" />
        </mxCell>
        <mxCell id="7m6j2GZ988V0n2dbMLoH-31" style="edgeStyle=orthogonalEdgeStyle;rounded=1;orthogonalLoop=1;jettySize=auto;html=1;startArrow=ERzeroToMany;startFill=1;endArrow=ERmandOne;endFill=0;strokeColor=#000000;entryX=0.2;entryY=1;entryDx=0;entryDy=0;entryPerimeter=0;exitX=1;exitY=0.5;exitDx=0;exitDy=0;" parent="7m6j2GZ988V0n2dbMLoH-1" source="7m6j2GZ988V0n2dbMLoH-94" target="7m6j2GZ988V0n2dbMLoH-61" edge="1">
          <mxGeometry relative="1" as="geometry" />
        </mxCell>
        <mxCell id="7m6j2GZ988V0n2dbMLoH-32" style="edgeStyle=orthogonalEdgeStyle;rounded=1;orthogonalLoop=1;jettySize=auto;html=1;startArrow=ERzeroToMany;startFill=1;endArrow=ERmandOne;endFill=0;strokeColor=#000000;exitX=0;exitY=0.5;exitDx=0;exitDy=0;" parent="7m6j2GZ988V0n2dbMLoH-1" source="7m6j2GZ988V0n2dbMLoH-92" target="7m6j2GZ988V0n2dbMLoH-9" edge="1">
          <mxGeometry relative="1" as="geometry" />
        </mxCell>
        <mxCell id="7m6j2GZ988V0n2dbMLoH-33" style="edgeStyle=orthogonalEdgeStyle;rounded=1;orthogonalLoop=1;jettySize=auto;html=1;startArrow=ERzeroToMany;startFill=1;endArrow=ERmandOne;endFill=0;strokeColor=#000000;exitX=0;exitY=0.5;exitDx=0;exitDy=0;entryX=0.5;entryY=1;entryDx=0;entryDy=0;entryPerimeter=0;dashed=1;" parent="7m6j2GZ988V0n2dbMLoH-1" source="7m6j2GZ988V0n2dbMLoH-85" target="7m6j2GZ988V0n2dbMLoH-26" edge="1">
          <mxGeometry relative="1" as="geometry">
            <mxPoint x="436" y="833" as="sourcePoint" />
            <mxPoint x="302.0799999999999" y="778" as="targetPoint" />
          </mxGeometry>
        </mxCell>
        <mxCell id="7m6j2GZ988V0n2dbMLoH-34" style="edgeStyle=orthogonalEdgeStyle;rounded=1;orthogonalLoop=1;jettySize=auto;html=1;startArrow=ERzeroToMany;startFill=1;endArrow=ERmandOne;endFill=0;strokeColor=#000000;entryX=0.6;entryY=1;entryDx=0;entryDy=0;entryPerimeter=0;exitX=1;exitY=0.5;exitDx=0;exitDy=0;dashed=1;" parent="7m6j2GZ988V0n2dbMLoH-1" source="7m6j2GZ988V0n2dbMLoH-87" target="7m6j2GZ988V0n2dbMLoH-61" edge="1">
          <mxGeometry relative="1" as="geometry">
            <mxPoint x="596" y="859" as="sourcePoint" />
            <mxPoint x="686" y="538" as="targetPoint" />
          </mxGeometry>
        </mxCell>
        <mxCell id="7m6j2GZ988V0n2dbMLoH-35" style="edgeStyle=orthogonalEdgeStyle;rounded=1;orthogonalLoop=1;jettySize=auto;html=1;startArrow=ERzeroToMany;startFill=1;endArrow=ERmandOne;endFill=0;strokeColor=#000000;entryX=0.8;entryY=1;entryDx=0;entryDy=0;entryPerimeter=0;dashed=1;exitX=0.5;exitY=0;exitDx=0;exitDy=0;" parent="7m6j2GZ988V0n2dbMLoH-1" source="RGnCGi8KVh0icx6WJeVB-0" target="7m6j2GZ988V0n2dbMLoH-61" edge="1">
          <mxGeometry relative="1" as="geometry">
            <mxPoint x="724" y="1058" as="sourcePoint" />
          </mxGeometry>
        </mxCell>
        <mxCell id="7m6j2GZ988V0n2dbMLoH-36" style="edgeStyle=orthogonalEdgeStyle;rounded=1;orthogonalLoop=1;jettySize=auto;html=1;startArrow=ERzeroToMany;startFill=1;endArrow=ERmandOne;endFill=0;strokeColor=#000000;exitX=0;exitY=0.5;exitDx=0;exitDy=0;entryX=0.25;entryY=1;entryDx=0;entryDy=0;entryPerimeter=0;dashed=1;" parent="7m6j2GZ988V0n2dbMLoH-1" source="RGnCGi8KVh0icx6WJeVB-3" target="7m6j2GZ988V0n2dbMLoH-26" edge="1">
          <mxGeometry relative="1" as="geometry">
            <mxPoint x="644" y="1127" as="sourcePoint" />
            <mxPoint x="196" y="814" as="targetPoint" />
          </mxGeometry>
        </mxCell>
        <mxCell id="7m6j2GZ988V0n2dbMLoH-39" value="GruppenDienstlink" style="swimlane;fontStyle=0;childLayout=stackLayout;horizontal=1;startSize=26;horizontalStack=0;resizeParent=1;resizeParentMax=0;resizeLast=0;collapsible=1;marginBottom=0;align=center;fontSize=14;" parent="7m6j2GZ988V0n2dbMLoH-1" vertex="1">
          <mxGeometry x="186" y="396" width="160" height="82" as="geometry" />
        </mxCell>
        <mxCell id="7m6j2GZ988V0n2dbMLoH-40" value="gruppe_id" style="shape=partialRectangle;top=0;left=0;right=0;bottom=1;align=left;verticalAlign=middle;fillColor=none;spacingLeft=34;spacingRight=4;overflow=hidden;rotatable=0;points=[[0,0.5],[1,0.5]];portConstraint=eastwest;dropTarget=0;fontStyle=2;fontSize=12;strokeColor=none;" parent="7m6j2GZ988V0n2dbMLoH-39" vertex="1">
          <mxGeometry y="26" width="160" height="30" as="geometry" />
        </mxCell>
        <mxCell id="7m6j2GZ988V0n2dbMLoH-41" value="FK" style="shape=partialRectangle;top=0;left=0;bottom=0;fillColor=none;align=left;verticalAlign=middle;spacingLeft=4;spacingRight=4;overflow=hidden;rotatable=0;points=[];portConstraint=eastwest;part=1;fontSize=12;" parent="7m6j2GZ988V0n2dbMLoH-40" vertex="1" connectable="0">
          <mxGeometry width="30" height="30" as="geometry" />
        </mxCell>
        <mxCell id="7m6j2GZ988V0n2dbMLoH-42" value="url" style="shape=partialRectangle;top=0;left=0;right=0;bottom=0;align=left;verticalAlign=top;fillColor=none;spacingLeft=34;spacingRight=4;overflow=hidden;rotatable=0;points=[[0,0.5],[1,0.5]];portConstraint=eastwest;dropTarget=0;fontSize=12;" parent="7m6j2GZ988V0n2dbMLoH-39" vertex="1">
          <mxGeometry y="56" width="160" height="26" as="geometry" />
        </mxCell>
        <mxCell id="7m6j2GZ988V0n2dbMLoH-43" value="" style="shape=partialRectangle;top=0;left=0;bottom=0;fillColor=none;align=left;verticalAlign=top;spacingLeft=4;spacingRight=4;overflow=hidden;rotatable=0;points=[];portConstraint=eastwest;part=1;fontSize=12;" parent="7m6j2GZ988V0n2dbMLoH-42" vertex="1" connectable="0">
          <mxGeometry width="30" height="26" as="geometry" />
        </mxCell>
        <mxCell id="7m6j2GZ988V0n2dbMLoH-44" value="Student" style="swimlane;fontStyle=0;childLayout=stackLayout;horizontal=1;startSize=26;horizontalStack=0;resizeParent=1;resizeParentMax=0;resizeLast=0;collapsible=1;marginBottom=0;align=center;fontSize=14;" parent="7m6j2GZ988V0n2dbMLoH-1" vertex="1">
          <mxGeometry x="596" y="370" width="160" height="264" as="geometry" />
        </mxCell>
        <mxCell id="7m6j2GZ988V0n2dbMLoH-45" value="id" style="shape=partialRectangle;top=0;left=0;right=0;bottom=1;align=left;verticalAlign=middle;fillColor=none;spacingLeft=34;spacingRight=4;overflow=hidden;rotatable=0;points=[[0,0.5],[1,0.5]];portConstraint=eastwest;dropTarget=0;fontStyle=1;fontSize=12;" parent="7m6j2GZ988V0n2dbMLoH-44" vertex="1">
          <mxGeometry y="26" width="160" height="30" as="geometry" />
        </mxCell>
        <mxCell id="7m6j2GZ988V0n2dbMLoH-46" value="PK" style="shape=partialRectangle;top=0;left=0;bottom=0;fillColor=none;align=left;verticalAlign=middle;spacingLeft=4;spacingRight=4;overflow=hidden;rotatable=0;points=[];portConstraint=eastwest;part=1;fontSize=12;fontStyle=1" parent="7m6j2GZ988V0n2dbMLoH-45" vertex="1" connectable="0">
          <mxGeometry width="30" height="30" as="geometry" />
        </mxCell>
        <mxCell id="7m6j2GZ988V0n2dbMLoH-47" value="name" style="shape=partialRectangle;top=0;left=0;right=0;bottom=0;align=left;verticalAlign=top;fillColor=none;spacingLeft=34;spacingRight=4;overflow=hidden;rotatable=0;points=[[0,0.5],[1,0.5]];portConstraint=eastwest;dropTarget=0;fontSize=12;" parent="7m6j2GZ988V0n2dbMLoH-44" vertex="1">
          <mxGeometry y="56" width="160" height="26" as="geometry" />
        </mxCell>
        <mxCell id="7m6j2GZ988V0n2dbMLoH-48" value="" style="shape=partialRectangle;top=0;left=0;bottom=0;fillColor=none;align=left;verticalAlign=top;spacingLeft=4;spacingRight=4;overflow=hidden;rotatable=0;points=[];portConstraint=eastwest;part=1;fontSize=12;" parent="7m6j2GZ988V0n2dbMLoH-47" vertex="1" connectable="0">
          <mxGeometry width="30" height="26" as="geometry" />
        </mxCell>
        <mxCell id="7m6j2GZ988V0n2dbMLoH-49" value="smail_adresse" style="shape=partialRectangle;top=0;left=0;right=0;bottom=0;align=left;verticalAlign=top;fillColor=none;spacingLeft=34;spacingRight=4;overflow=hidden;rotatable=0;points=[[0,0.5],[1,0.5]];portConstraint=eastwest;dropTarget=0;fontSize=12;" parent="7m6j2GZ988V0n2dbMLoH-44" vertex="1">
          <mxGeometry y="82" width="160" height="26" as="geometry" />
        </mxCell>
        <mxCell id="7m6j2GZ988V0n2dbMLoH-50" value="" style="shape=partialRectangle;top=0;left=0;bottom=0;fillColor=none;align=left;verticalAlign=top;spacingLeft=4;spacingRight=4;overflow=hidden;rotatable=0;points=[];portConstraint=eastwest;part=1;fontSize=12;" parent="7m6j2GZ988V0n2dbMLoH-49" vertex="1" connectable="0">
          <mxGeometry width="30" height="26" as="geometry" />
        </mxCell>
        <mxCell id="7m6j2GZ988V0n2dbMLoH-51" value="studiengang_id" style="shape=partialRectangle;top=0;left=0;right=0;bottom=0;align=left;verticalAlign=top;fillColor=none;spacingLeft=34;spacingRight=4;overflow=hidden;rotatable=0;points=[[0,0.5],[1,0.5]];portConstraint=eastwest;dropTarget=0;fontSize=12;fontStyle=2" parent="7m6j2GZ988V0n2dbMLoH-44" vertex="1">
          <mxGeometry y="108" width="160" height="26" as="geometry" />
        </mxCell>
        <mxCell id="7m6j2GZ988V0n2dbMLoH-52" value="FK" style="shape=partialRectangle;top=0;left=0;bottom=0;fillColor=none;align=left;verticalAlign=top;spacingLeft=4;spacingRight=4;overflow=hidden;rotatable=0;points=[];portConstraint=eastwest;part=1;fontSize=12;" parent="7m6j2GZ988V0n2dbMLoH-51" vertex="1" connectable="0">
          <mxGeometry width="30" height="26" as="geometry" />
        </mxCell>
        <mxCell id="7m6j2GZ988V0n2dbMLoH-53" value="semester = 1" style="shape=partialRectangle;top=0;left=0;right=0;bottom=0;align=left;verticalAlign=top;fillColor=none;spacingLeft=34;spacingRight=4;overflow=hidden;rotatable=0;points=[[0,0.5],[1,0.5]];portConstraint=eastwest;dropTarget=0;fontSize=12;" parent="7m6j2GZ988V0n2dbMLoH-44" vertex="1">
          <mxGeometry y="134" width="160" height="26" as="geometry" />
        </mxCell>
        <mxCell id="7m6j2GZ988V0n2dbMLoH-54" value="" style="shape=partialRectangle;top=0;left=0;bottom=0;fillColor=none;align=left;verticalAlign=top;spacingLeft=4;spacingRight=4;overflow=hidden;rotatable=0;points=[];portConstraint=eastwest;part=1;fontSize=12;" parent="7m6j2GZ988V0n2dbMLoH-53" vertex="1" connectable="0">
          <mxGeometry width="30" height="26" as="geometry" />
        </mxCell>
        <mxCell id="7m6j2GZ988V0n2dbMLoH-55" value="passwort_hash" style="shape=partialRectangle;top=0;left=0;right=0;bottom=0;align=left;verticalAlign=top;fillColor=none;spacingLeft=34;spacingRight=4;overflow=hidden;rotatable=0;points=[[0,0.5],[1,0.5]];portConstraint=eastwest;dropTarget=0;fontSize=12;" parent="7m6j2GZ988V0n2dbMLoH-44" vertex="1">
          <mxGeometry y="160" width="160" height="26" as="geometry" />
        </mxCell>
        <mxCell id="7m6j2GZ988V0n2dbMLoH-56" value="" style="shape=partialRectangle;top=0;left=0;bottom=0;fillColor=none;align=left;verticalAlign=top;spacingLeft=4;spacingRight=4;overflow=hidden;rotatable=0;points=[];portConstraint=eastwest;part=1;fontSize=12;" parent="7m6j2GZ988V0n2dbMLoH-55" vertex="1" connectable="0">
          <mxGeometry width="30" height="26" as="geometry" />
        </mxCell>
        <mxCell id="7m6j2GZ988V0n2dbMLoH-57" value="profil_beschreibung" style="shape=partialRectangle;top=0;left=0;right=0;bottom=0;align=left;verticalAlign=top;fillColor=none;spacingLeft=34;spacingRight=4;overflow=hidden;rotatable=0;points=[[0,0.5],[1,0.5]];portConstraint=eastwest;dropTarget=0;fontSize=12;" parent="7m6j2GZ988V0n2dbMLoH-44" vertex="1">
          <mxGeometry y="186" width="160" height="26" as="geometry" />
        </mxCell>
        <mxCell id="7m6j2GZ988V0n2dbMLoH-58" value="" style="shape=partialRectangle;top=0;left=0;bottom=0;fillColor=none;align=left;verticalAlign=top;spacingLeft=4;spacingRight=4;overflow=hidden;rotatable=0;points=[];portConstraint=eastwest;part=1;fontSize=12;" parent="7m6j2GZ988V0n2dbMLoH-57" vertex="1" connectable="0">
          <mxGeometry width="30" height="26" as="geometry" />
        </mxCell>
        <mxCell id="7m6j2GZ988V0n2dbMLoH-59" value="profil_bild" style="shape=partialRectangle;top=0;left=0;right=0;bottom=0;align=left;verticalAlign=top;fillColor=none;spacingLeft=34;spacingRight=4;overflow=hidden;rotatable=0;points=[[0,0.5],[1,0.5]];portConstraint=eastwest;dropTarget=0;fontSize=12;" parent="7m6j2GZ988V0n2dbMLoH-44" vertex="1">
          <mxGeometry y="212" width="160" height="26" as="geometry" />
        </mxCell>
        <mxCell id="7m6j2GZ988V0n2dbMLoH-60" value="null" style="shape=partialRectangle;top=0;left=0;bottom=0;fillColor=none;align=left;verticalAlign=top;spacingLeft=4;spacingRight=4;overflow=hidden;rotatable=0;points=[];portConstraint=eastwest;part=1;fontSize=12;" parent="7m6j2GZ988V0n2dbMLoH-59" vertex="1" connectable="0">
          <mxGeometry width="30" height="26" as="geometry" />
        </mxCell>
        <mxCell id="7m6j2GZ988V0n2dbMLoH-61" value="geburtsdatum" style="shape=partialRectangle;top=0;left=0;right=0;bottom=0;align=left;verticalAlign=top;fillColor=none;spacingLeft=34;spacingRight=4;overflow=hidden;rotatable=0;points=[[0,0.5],[1,0.5]];portConstraint=eastwest;dropTarget=0;fontSize=12;" parent="7m6j2GZ988V0n2dbMLoH-44" vertex="1">
          <mxGeometry y="238" width="160" height="26" as="geometry" />
        </mxCell>
        <mxCell id="7m6j2GZ988V0n2dbMLoH-62" value="null" style="shape=partialRectangle;top=0;left=0;bottom=0;fillColor=none;align=left;verticalAlign=top;spacingLeft=4;spacingRight=4;overflow=hidden;rotatable=0;points=[];portConstraint=eastwest;part=1;fontSize=12;" parent="7m6j2GZ988V0n2dbMLoH-61" vertex="1" connectable="0">
          <mxGeometry width="30" height="26" as="geometry" />
        </mxCell>
        <mxCell id="7m6j2GZ988V0n2dbMLoH-73" value="GruppenBeitrag" style="swimlane;fontStyle=0;childLayout=stackLayout;horizontal=1;startSize=26;horizontalStack=0;resizeParent=1;resizeParentMax=0;resizeLast=0;collapsible=1;marginBottom=0;align=center;fontSize=14;" parent="7m6j2GZ988V0n2dbMLoH-1" vertex="1">
          <mxGeometry x="410" y="774" width="160" height="160" as="geometry" />
        </mxCell>
        <mxCell id="7m6j2GZ988V0n2dbMLoH-74" value="id" style="shape=partialRectangle;top=0;left=0;right=0;bottom=1;align=left;verticalAlign=middle;fillColor=none;spacingLeft=34;spacingRight=4;overflow=hidden;rotatable=0;points=[[0,0.5],[1,0.5]];portConstraint=eastwest;dropTarget=0;fontStyle=1;fontSize=12;" parent="7m6j2GZ988V0n2dbMLoH-73" vertex="1">
          <mxGeometry y="26" width="160" height="30" as="geometry" />
        </mxCell>
        <mxCell id="7m6j2GZ988V0n2dbMLoH-75" value="PK" style="shape=partialRectangle;top=0;left=0;bottom=0;fillColor=none;align=left;verticalAlign=middle;spacingLeft=4;spacingRight=4;overflow=hidden;rotatable=0;points=[];portConstraint=eastwest;part=1;fontSize=12;fontStyle=1" parent="7m6j2GZ988V0n2dbMLoH-74" vertex="1" connectable="0">
          <mxGeometry width="30" height="30" as="geometry" />
        </mxCell>
        <mxCell id="7m6j2GZ988V0n2dbMLoH-76" value="gruppe_id" style="shape=partialRectangle;top=0;left=0;right=0;bottom=0;align=left;verticalAlign=top;fillColor=none;spacingLeft=34;spacingRight=4;overflow=hidden;rotatable=0;points=[[0,0.5],[1,0.5]];portConstraint=eastwest;dropTarget=0;fontSize=12;fontStyle=2" parent="7m6j2GZ988V0n2dbMLoH-73" vertex="1">
          <mxGeometry y="56" width="160" height="26" as="geometry" />
        </mxCell>
        <mxCell id="7m6j2GZ988V0n2dbMLoH-77" value="FK" style="shape=partialRectangle;top=0;left=0;bottom=0;fillColor=none;align=left;verticalAlign=top;spacingLeft=4;spacingRight=4;overflow=hidden;rotatable=0;points=[];portConstraint=eastwest;part=1;fontSize=12;" parent="7m6j2GZ988V0n2dbMLoH-76" vertex="1" connectable="0">
          <mxGeometry width="30" height="26" as="geometry" />
        </mxCell>
        <mxCell id="7m6j2GZ988V0n2dbMLoH-78" value="student_id" style="shape=partialRectangle;top=0;left=0;right=0;bottom=0;align=left;verticalAlign=top;fillColor=none;spacingLeft=34;spacingRight=4;overflow=hidden;rotatable=0;points=[[0,0.5],[1,0.5]];portConstraint=eastwest;dropTarget=0;fontSize=12;fontStyle=2" parent="7m6j2GZ988V0n2dbMLoH-73" vertex="1">
          <mxGeometry y="82" width="160" height="26" as="geometry" />
        </mxCell>
        <mxCell id="7m6j2GZ988V0n2dbMLoH-79" value="FK" style="shape=partialRectangle;top=0;left=0;bottom=0;fillColor=none;align=left;verticalAlign=top;spacingLeft=4;spacingRight=4;overflow=hidden;rotatable=0;points=[];portConstraint=eastwest;part=1;fontSize=12;" parent="7m6j2GZ988V0n2dbMLoH-78" vertex="1" connectable="0">
          <mxGeometry width="30" height="26" as="geometry" />
        </mxCell>
        <mxCell id="7m6j2GZ988V0n2dbMLoH-80" value="datum" style="shape=partialRectangle;top=0;left=0;right=0;bottom=0;align=left;verticalAlign=top;fillColor=none;spacingLeft=34;spacingRight=4;overflow=hidden;rotatable=0;points=[[0,0.5],[1,0.5]];portConstraint=eastwest;dropTarget=0;fontSize=12;" parent="7m6j2GZ988V0n2dbMLoH-73" vertex="1">
          <mxGeometry y="108" width="160" height="26" as="geometry" />
        </mxCell>
        <mxCell id="7m6j2GZ988V0n2dbMLoH-81" value="" style="shape=partialRectangle;top=0;left=0;bottom=0;fillColor=none;align=left;verticalAlign=top;spacingLeft=4;spacingRight=4;overflow=hidden;rotatable=0;points=[];portConstraint=eastwest;part=1;fontSize=12;" parent="7m6j2GZ988V0n2dbMLoH-80" vertex="1" connectable="0">
          <mxGeometry width="30" height="26" as="geometry" />
        </mxCell>
        <mxCell id="7m6j2GZ988V0n2dbMLoH-82" value="nachricht" style="shape=partialRectangle;top=0;left=0;right=0;bottom=0;align=left;verticalAlign=top;fillColor=none;spacingLeft=34;spacingRight=4;overflow=hidden;rotatable=0;points=[[0,0.5],[1,0.5]];portConstraint=eastwest;dropTarget=0;fontSize=12;" parent="7m6j2GZ988V0n2dbMLoH-73" vertex="1">
          <mxGeometry y="134" width="160" height="26" as="geometry" />
        </mxCell>
        <mxCell id="7m6j2GZ988V0n2dbMLoH-83" value="" style="shape=partialRectangle;top=0;left=0;bottom=0;fillColor=none;align=left;verticalAlign=top;spacingLeft=4;spacingRight=4;overflow=hidden;rotatable=0;points=[];portConstraint=eastwest;part=1;fontSize=12;" parent="7m6j2GZ988V0n2dbMLoH-82" vertex="1" connectable="0">
          <mxGeometry width="30" height="26" as="geometry" />
        </mxCell>
        <mxCell id="7m6j2GZ988V0n2dbMLoH-84" value="GruppenAnfrage" style="swimlane;fontStyle=0;childLayout=stackLayout;horizontal=1;startSize=26;horizontalStack=0;resizeParent=1;resizeParentMax=0;resizeLast=0;collapsible=1;marginBottom=0;align=center;fontSize=14;" parent="7m6j2GZ988V0n2dbMLoH-1" vertex="1">
          <mxGeometry x="410" y="954" width="160" height="104" as="geometry" />
        </mxCell>
        <mxCell id="7m6j2GZ988V0n2dbMLoH-85" value="gruppe_id" style="shape=partialRectangle;top=0;left=0;right=0;bottom=0;align=left;verticalAlign=top;fillColor=none;spacingLeft=34;spacingRight=4;overflow=hidden;rotatable=0;points=[[0,0.5],[1,0.5]];portConstraint=eastwest;dropTarget=0;fontSize=12;fontStyle=2" parent="7m6j2GZ988V0n2dbMLoH-84" vertex="1">
          <mxGeometry y="26" width="160" height="26" as="geometry" />
        </mxCell>
        <mxCell id="7m6j2GZ988V0n2dbMLoH-86" value="FK" style="shape=partialRectangle;top=0;left=0;bottom=0;fillColor=none;align=left;verticalAlign=top;spacingLeft=4;spacingRight=4;overflow=hidden;rotatable=0;points=[];portConstraint=eastwest;part=1;fontSize=12;" parent="7m6j2GZ988V0n2dbMLoH-85" vertex="1" connectable="0">
          <mxGeometry width="30" height="26" as="geometry" />
        </mxCell>
        <mxCell id="7m6j2GZ988V0n2dbMLoH-87" value="student_id" style="shape=partialRectangle;top=0;left=0;right=0;bottom=0;align=left;verticalAlign=top;fillColor=none;spacingLeft=34;spacingRight=4;overflow=hidden;rotatable=0;points=[[0,0.5],[1,0.5]];portConstraint=eastwest;dropTarget=0;fontSize=12;fontStyle=2" parent="7m6j2GZ988V0n2dbMLoH-84" vertex="1">
          <mxGeometry y="52" width="160" height="26" as="geometry" />
        </mxCell>
        <mxCell id="7m6j2GZ988V0n2dbMLoH-88" value="FK" style="shape=partialRectangle;top=0;left=0;bottom=0;fillColor=none;align=left;verticalAlign=top;spacingLeft=4;spacingRight=4;overflow=hidden;rotatable=0;points=[];portConstraint=eastwest;part=1;fontSize=12;" parent="7m6j2GZ988V0n2dbMLoH-87" vertex="1" connectable="0">
          <mxGeometry width="30" height="26" as="geometry" />
        </mxCell>
        <mxCell id="7m6j2GZ988V0n2dbMLoH-89" value="beitrittsdatum" style="shape=partialRectangle;top=0;left=0;right=0;bottom=0;align=left;verticalAlign=top;fillColor=none;spacingLeft=34;spacingRight=4;overflow=hidden;rotatable=0;points=[[0,0.5],[1,0.5]];portConstraint=eastwest;dropTarget=0;fontSize=12;" parent="7m6j2GZ988V0n2dbMLoH-84" vertex="1">
          <mxGeometry y="78" width="160" height="26" as="geometry" />
        </mxCell>
        <mxCell id="7m6j2GZ988V0n2dbMLoH-90" value="" style="shape=partialRectangle;top=0;left=0;bottom=0;fillColor=none;align=left;verticalAlign=top;spacingLeft=4;spacingRight=4;overflow=hidden;rotatable=0;points=[];portConstraint=eastwest;part=1;fontSize=12;" parent="7m6j2GZ988V0n2dbMLoH-89" vertex="1" connectable="0">
          <mxGeometry width="30" height="26" as="geometry" />
        </mxCell>
        <mxCell id="7m6j2GZ988V0n2dbMLoH-91" value="Gruppe_Student" style="swimlane;fontStyle=0;childLayout=stackLayout;horizontal=1;startSize=26;horizontalStack=0;resizeParent=1;resizeParentMax=0;resizeLast=0;collapsible=1;marginBottom=0;align=center;fontSize=14;" parent="7m6j2GZ988V0n2dbMLoH-1" vertex="1">
          <mxGeometry x="410" y="642" width="160" height="112" as="geometry" />
        </mxCell>
        <mxCell id="7m6j2GZ988V0n2dbMLoH-92" value="gruppe_id" style="shape=partialRectangle;top=0;left=0;right=0;bottom=0;align=left;verticalAlign=middle;fillColor=none;spacingLeft=60;spacingRight=4;overflow=hidden;rotatable=0;points=[[0,0.5],[1,0.5]];portConstraint=eastwest;dropTarget=0;fontStyle=3;fontSize=12;" parent="7m6j2GZ988V0n2dbMLoH-91" vertex="1">
          <mxGeometry y="26" width="160" height="30" as="geometry" />
        </mxCell>
        <mxCell id="7m6j2GZ988V0n2dbMLoH-93" value="PK, FK1" style="shape=partialRectangle;fontStyle=1;top=0;left=0;bottom=0;fillColor=none;align=left;verticalAlign=middle;spacingLeft=4;spacingRight=4;overflow=hidden;rotatable=0;points=[];portConstraint=eastwest;part=1;fontSize=12;" parent="7m6j2GZ988V0n2dbMLoH-92" vertex="1" connectable="0">
          <mxGeometry width="56" height="30" as="geometry" />
        </mxCell>
        <mxCell id="7m6j2GZ988V0n2dbMLoH-94" value="student_id" style="shape=partialRectangle;top=0;left=0;right=0;bottom=1;align=left;verticalAlign=middle;fillColor=none;spacingLeft=60;spacingRight=4;overflow=hidden;rotatable=0;points=[[0,0.5],[1,0.5]];portConstraint=eastwest;dropTarget=0;fontStyle=3;fontSize=12;" parent="7m6j2GZ988V0n2dbMLoH-91" vertex="1">
          <mxGeometry y="56" width="160" height="30" as="geometry" />
        </mxCell>
        <mxCell id="7m6j2GZ988V0n2dbMLoH-95" value="PK, FK2" style="shape=partialRectangle;fontStyle=1;top=0;left=0;bottom=0;fillColor=none;align=left;verticalAlign=middle;spacingLeft=4;spacingRight=4;overflow=hidden;rotatable=0;points=[];portConstraint=eastwest;part=1;fontSize=12;" parent="7m6j2GZ988V0n2dbMLoH-94" vertex="1" connectable="0">
          <mxGeometry width="56" height="30" as="geometry" />
        </mxCell>
        <mxCell id="7m6j2GZ988V0n2dbMLoH-96" value="beitrittsdatum" style="shape=partialRectangle;top=0;left=0;right=0;bottom=0;align=left;verticalAlign=top;fillColor=none;spacingLeft=60;spacingRight=4;overflow=hidden;rotatable=0;points=[[0,0.5],[1,0.5]];portConstraint=eastwest;dropTarget=0;fontSize=12;" parent="7m6j2GZ988V0n2dbMLoH-91" vertex="1">
          <mxGeometry y="86" width="160" height="26" as="geometry" />
        </mxCell>
        <mxCell id="7m6j2GZ988V0n2dbMLoH-97" value="" style="shape=partialRectangle;top=0;left=0;bottom=0;fillColor=none;align=left;verticalAlign=top;spacingLeft=4;spacingRight=4;overflow=hidden;rotatable=0;points=[];portConstraint=eastwest;part=1;fontSize=12;" parent="7m6j2GZ988V0n2dbMLoH-96" vertex="1" connectable="0">
          <mxGeometry width="56" height="26" as="geometry" />
        </mxCell>
        <mxCell id="7m6j2GZ988V0n2dbMLoH-98" value="Studiengang" style="swimlane;fontStyle=0;childLayout=stackLayout;horizontal=1;startSize=26;horizontalStack=0;resizeParent=1;resizeParentMax=0;resizeLast=0;collapsible=1;marginBottom=0;align=center;fontSize=14;" parent="7m6j2GZ988V0n2dbMLoH-1" vertex="1">
          <mxGeometry x="360" y="204" width="160" height="134" as="geometry" />
        </mxCell>
        <mxCell id="7m6j2GZ988V0n2dbMLoH-99" value="id" style="shape=partialRectangle;top=0;left=0;right=0;bottom=1;align=left;verticalAlign=middle;fillColor=none;spacingLeft=34;spacingRight=4;overflow=hidden;rotatable=0;points=[[0,0.5],[1,0.5]];portConstraint=eastwest;dropTarget=0;fontStyle=1;fontSize=12;" parent="7m6j2GZ988V0n2dbMLoH-98" vertex="1">
          <mxGeometry y="26" width="160" height="30" as="geometry" />
        </mxCell>
        <mxCell id="7m6j2GZ988V0n2dbMLoH-100" value="PK" style="shape=partialRectangle;top=0;left=0;bottom=0;fillColor=none;align=left;verticalAlign=middle;spacingLeft=4;spacingRight=4;overflow=hidden;rotatable=0;points=[];portConstraint=eastwest;part=1;fontSize=12;fontStyle=1" parent="7m6j2GZ988V0n2dbMLoH-99" vertex="1" connectable="0">
          <mxGeometry width="30" height="30" as="geometry" />
        </mxCell>
        <mxCell id="7m6j2GZ988V0n2dbMLoH-101" value="name" style="shape=partialRectangle;top=0;left=0;right=0;bottom=0;align=left;verticalAlign=top;fillColor=none;spacingLeft=34;spacingRight=4;overflow=hidden;rotatable=0;points=[[0,0.5],[1,0.5]];portConstraint=eastwest;dropTarget=0;fontSize=12;" parent="7m6j2GZ988V0n2dbMLoH-98" vertex="1">
          <mxGeometry y="56" width="160" height="26" as="geometry" />
        </mxCell>
        <mxCell id="7m6j2GZ988V0n2dbMLoH-102" value="" style="shape=partialRectangle;top=0;left=0;bottom=0;fillColor=none;align=left;verticalAlign=top;spacingLeft=4;spacingRight=4;overflow=hidden;rotatable=0;points=[];portConstraint=eastwest;part=1;fontSize=12;" parent="7m6j2GZ988V0n2dbMLoH-101" vertex="1" connectable="0">
          <mxGeometry width="30" height="26" as="geometry" />
        </mxCell>
        <mxCell id="7m6j2GZ988V0n2dbMLoH-103" value="fakultaet_id" style="shape=partialRectangle;top=0;left=0;right=0;bottom=0;align=left;verticalAlign=top;fillColor=none;spacingLeft=34;spacingRight=4;overflow=hidden;rotatable=0;points=[[0,0.5],[1,0.5]];portConstraint=eastwest;dropTarget=0;fontSize=12;fontStyle=2" parent="7m6j2GZ988V0n2dbMLoH-98" vertex="1">
          <mxGeometry y="82" width="160" height="26" as="geometry" />
        </mxCell>
        <mxCell id="7m6j2GZ988V0n2dbMLoH-104" value="FK" style="shape=partialRectangle;top=0;left=0;bottom=0;fillColor=none;align=left;verticalAlign=top;spacingLeft=4;spacingRight=4;overflow=hidden;rotatable=0;points=[];portConstraint=eastwest;part=1;fontSize=12;" parent="7m6j2GZ988V0n2dbMLoH-103" vertex="1" connectable="0">
          <mxGeometry width="30" height="26" as="geometry" />
        </mxCell>
        <mxCell id="7m6j2GZ988V0n2dbMLoH-105" value="abschluss" style="shape=partialRectangle;top=0;left=0;right=0;bottom=0;align=left;verticalAlign=top;fillColor=none;spacingLeft=34;spacingRight=4;overflow=hidden;rotatable=0;points=[[0,0.5],[1,0.5]];portConstraint=eastwest;dropTarget=0;fontSize=12;" parent="7m6j2GZ988V0n2dbMLoH-98" vertex="1">
          <mxGeometry y="108" width="160" height="26" as="geometry" />
        </mxCell>
        <mxCell id="7m6j2GZ988V0n2dbMLoH-106" value="" style="shape=partialRectangle;top=0;left=0;bottom=0;fillColor=none;align=left;verticalAlign=top;spacingLeft=4;spacingRight=4;overflow=hidden;rotatable=0;points=[];portConstraint=eastwest;part=1;fontSize=12;" parent="7m6j2GZ988V0n2dbMLoH-105" vertex="1" connectable="0">
          <mxGeometry width="30" height="26" as="geometry" />
        </mxCell>
        <mxCell id="7m6j2GZ988V0n2dbMLoH-114" value="Modul" style="swimlane;fontStyle=0;childLayout=stackLayout;horizontal=1;startSize=26;horizontalStack=0;resizeParent=1;resizeParentMax=0;resizeLast=0;collapsible=1;marginBottom=0;align=center;fontSize=14;" parent="7m6j2GZ988V0n2dbMLoH-1" vertex="1">
          <mxGeometry x="64" y="204" width="160" height="134" as="geometry" />
        </mxCell>
        <mxCell id="7m6j2GZ988V0n2dbMLoH-115" value="id" style="shape=partialRectangle;top=0;left=0;right=0;bottom=1;align=left;verticalAlign=middle;fillColor=none;spacingLeft=34;spacingRight=4;overflow=hidden;rotatable=0;points=[[0,0.5],[1,0.5]];portConstraint=eastwest;dropTarget=0;fontStyle=1;fontSize=12;" parent="7m6j2GZ988V0n2dbMLoH-114" vertex="1">
          <mxGeometry y="26" width="160" height="30" as="geometry" />
        </mxCell>
        <mxCell id="7m6j2GZ988V0n2dbMLoH-116" value="PK" style="shape=partialRectangle;top=0;left=0;bottom=0;fillColor=none;align=left;verticalAlign=middle;spacingLeft=4;spacingRight=4;overflow=hidden;rotatable=0;points=[];portConstraint=eastwest;part=1;fontSize=12;fontStyle=1" parent="7m6j2GZ988V0n2dbMLoH-115" vertex="1" connectable="0">
          <mxGeometry width="30" height="30" as="geometry" />
        </mxCell>
        <mxCell id="7m6j2GZ988V0n2dbMLoH-117" value="name" style="shape=partialRectangle;top=0;left=0;right=0;bottom=0;align=left;verticalAlign=top;fillColor=none;spacingLeft=34;spacingRight=4;overflow=hidden;rotatable=0;points=[[0,0.5],[1,0.5]];portConstraint=eastwest;dropTarget=0;fontSize=12;" parent="7m6j2GZ988V0n2dbMLoH-114" vertex="1">
          <mxGeometry y="56" width="160" height="26" as="geometry" />
        </mxCell>
        <mxCell id="7m6j2GZ988V0n2dbMLoH-118" value="" style="shape=partialRectangle;top=0;left=0;bottom=0;fillColor=none;align=left;verticalAlign=top;spacingLeft=4;spacingRight=4;overflow=hidden;rotatable=0;points=[];portConstraint=eastwest;part=1;fontSize=12;" parent="7m6j2GZ988V0n2dbMLoH-117" vertex="1" connectable="0">
          <mxGeometry width="30" height="26" as="geometry" />
        </mxCell>
        <mxCell id="7m6j2GZ988V0n2dbMLoH-119" value="dozent" style="shape=partialRectangle;top=0;left=0;right=0;bottom=0;align=left;verticalAlign=top;fillColor=none;spacingLeft=34;spacingRight=4;overflow=hidden;rotatable=0;points=[[0,0.5],[1,0.5]];portConstraint=eastwest;dropTarget=0;fontSize=12;" parent="7m6j2GZ988V0n2dbMLoH-114" vertex="1">
          <mxGeometry y="82" width="160" height="26" as="geometry" />
        </mxCell>
        <mxCell id="7m6j2GZ988V0n2dbMLoH-120" value="" style="shape=partialRectangle;top=0;left=0;bottom=0;fillColor=none;align=left;verticalAlign=top;spacingLeft=4;spacingRight=4;overflow=hidden;rotatable=0;points=[];portConstraint=eastwest;part=1;fontSize=12;" parent="7m6j2GZ988V0n2dbMLoH-119" vertex="1" connectable="0">
          <mxGeometry width="30" height="26" as="geometry" />
        </mxCell>
        <mxCell id="7m6j2GZ988V0n2dbMLoH-121" value="semester" style="shape=partialRectangle;top=0;left=0;right=0;bottom=0;align=left;verticalAlign=top;fillColor=none;spacingLeft=34;spacingRight=4;overflow=hidden;rotatable=0;points=[[0,0.5],[1,0.5]];portConstraint=eastwest;dropTarget=0;fontSize=12;" parent="7m6j2GZ988V0n2dbMLoH-114" vertex="1">
          <mxGeometry y="108" width="160" height="26" as="geometry" />
        </mxCell>
        <mxCell id="7m6j2GZ988V0n2dbMLoH-122" value="null" style="shape=partialRectangle;top=0;left=0;bottom=0;fillColor=none;align=left;verticalAlign=top;spacingLeft=4;spacingRight=4;overflow=hidden;rotatable=0;points=[];portConstraint=eastwest;part=1;fontSize=12;" parent="7m6j2GZ988V0n2dbMLoH-121" vertex="1" connectable="0">
          <mxGeometry width="30" height="26" as="geometry" />
        </mxCell>
        <mxCell id="7m6j2GZ988V0n2dbMLoH-132" value="🠘 ist Teil von" style="text;strokeColor=none;fillColor=none;spacingLeft=4;spacingRight=4;overflow=hidden;rotatable=0;points=[[0,0.5],[1,0.5]];portConstraint=eastwest;fontSize=12;align=center;" parent="7m6j2GZ988V0n2dbMLoH-1" vertex="1">
          <mxGeometry x="444" y="616" width="92" height="26" as="geometry" />
        </mxCell>
        <mxCell id="u-HPTLCLxVCKamLFezhA-0" style="edgeStyle=orthogonalEdgeStyle;rounded=1;orthogonalLoop=1;jettySize=auto;html=1;exitX=1;exitY=0.3;exitDx=0;exitDy=0;startArrow=ERmandOne;startFill=0;endArrow=ERzeroToMany;endFill=1;strokeColor=#000000;strokeWidth=1;exitPerimeter=0;entryX=1;entryY=0.5;entryDx=0;entryDy=0;" parent="7m6j2GZ988V0n2dbMLoH-1" source="N3L-eHjsQ5mDB_CrXyUi-1" target="7m6j2GZ988V0n2dbMLoH-64" edge="1">
          <mxGeometry relative="1" as="geometry">
            <mxPoint x="1060" y="467" as="targetPoint" />
            <Array as="points">
              <mxPoint x="1060" y="569" />
              <mxPoint x="1060" y="437" />
            </Array>
          </mxGeometry>
        </mxCell>
        <mxCell id="N3L-eHjsQ5mDB_CrXyUi-0" value="EindeutigeKennung" style="swimlane;fontStyle=0;childLayout=stackLayout;horizontal=1;startSize=26;horizontalStack=0;resizeParent=1;resizeParentMax=0;resizeLast=0;collapsible=1;marginBottom=0;align=center;fontSize=14;" parent="7m6j2GZ988V0n2dbMLoH-1" vertex="1">
          <mxGeometry x="849" y="534" width="160" height="82" as="geometry" />
        </mxCell>
        <mxCell id="N3L-eHjsQ5mDB_CrXyUi-1" value="id" style="shape=partialRectangle;top=0;left=0;right=0;bottom=1;align=left;verticalAlign=middle;fillColor=none;spacingLeft=34;spacingRight=4;overflow=hidden;rotatable=0;points=[[0,0.5],[1,0.5]];portConstraint=eastwest;dropTarget=0;fontStyle=1;fontSize=12;" parent="N3L-eHjsQ5mDB_CrXyUi-0" vertex="1">
          <mxGeometry y="26" width="160" height="30" as="geometry" />
        </mxCell>
        <mxCell id="N3L-eHjsQ5mDB_CrXyUi-2" value="PK" style="shape=partialRectangle;top=0;left=0;bottom=0;fillColor=none;align=left;verticalAlign=middle;spacingLeft=4;spacingRight=4;overflow=hidden;rotatable=0;points=[];portConstraint=eastwest;part=1;fontSize=12;fontStyle=1" parent="N3L-eHjsQ5mDB_CrXyUi-1" vertex="1" connectable="0">
          <mxGeometry width="30" height="30" as="geometry" />
        </mxCell>
        <mxCell id="N3L-eHjsQ5mDB_CrXyUi-3" value="kennung" style="shape=partialRectangle;top=0;left=0;right=0;bottom=0;align=left;verticalAlign=top;fillColor=none;spacingLeft=34;spacingRight=4;overflow=hidden;rotatable=0;points=[[0,0.5],[1,0.5]];portConstraint=eastwest;dropTarget=0;fontSize=12;" parent="N3L-eHjsQ5mDB_CrXyUi-0" vertex="1">
          <mxGeometry y="56" width="160" height="26" as="geometry" />
        </mxCell>
        <mxCell id="N3L-eHjsQ5mDB_CrXyUi-4" value="UQ" style="shape=partialRectangle;top=0;left=0;bottom=0;fillColor=none;align=left;verticalAlign=top;spacingLeft=4;spacingRight=4;overflow=hidden;rotatable=0;points=[];portConstraint=eastwest;part=1;fontSize=12;" parent="N3L-eHjsQ5mDB_CrXyUi-3" vertex="1" connectable="0">
          <mxGeometry width="30" height="26" as="geometry" />
        </mxCell>
        <mxCell id="ryNATmwmhOAve62Uh5K_-6" style="edgeStyle=orthogonalEdgeStyle;rounded=1;orthogonalLoop=1;jettySize=auto;html=1;exitX=1;exitY=0.733;exitDx=0;exitDy=0;startArrow=ERmandOne;startFill=0;endArrow=ERzeroToMany;endFill=1;strokeColor=#000000;strokeWidth=1;exitPerimeter=0;entryX=1;entryY=0.5;entryDx=0;entryDy=0;elbow=vertical;" parent="7m6j2GZ988V0n2dbMLoH-1" source="N3L-eHjsQ5mDB_CrXyUi-1" target="7m6j2GZ988V0n2dbMLoH-69" edge="1">
          <mxGeometry relative="1" as="geometry">
            <mxPoint x="1060" y="610" as="sourcePoint" />
            <mxPoint x="1081" y="508" as="targetPoint" />
            <Array as="points">
              <mxPoint x="1100" y="582" />
              <mxPoint x="1100" y="329" />
            </Array>
          </mxGeometry>
        </mxCell>
        <mxCell id="ryNATmwmhOAve62Uh5K_-12" value="" style="group" parent="7m6j2GZ988V0n2dbMLoH-1" vertex="1" connectable="0">
          <mxGeometry x="1035" y="524" width="65" height="42" as="geometry" />
        </mxCell>
        <mxCell id="ryNATmwmhOAve62Uh5K_-2" value="" style="group" parent="ryNATmwmhOAve62Uh5K_-12" vertex="1" connectable="0">
          <mxGeometry width="48" height="24" as="geometry" />
        </mxCell>
        <mxCell id="ryNATmwmhOAve62Uh5K_-3" value="" style="verticalLabelPosition=bottom;verticalAlign=top;html=1;shape=mxgraph.basic.half_circle;align=center;" parent="ryNATmwmhOAve62Uh5K_-2" vertex="1">
          <mxGeometry width="48" height="24" as="geometry" />
        </mxCell>
        <mxCell id="ryNATmwmhOAve62Uh5K_-4" value="" style="endArrow=none;html=1;strokeColor=#000000;strokeWidth=1;exitX=0.2;exitY=0;exitDx=0;exitDy=0;exitPerimeter=0;entryX=0.8;entryY=0.8;entryDx=0;entryDy=0;entryPerimeter=0;" parent="ryNATmwmhOAve62Uh5K_-2" source="ryNATmwmhOAve62Uh5K_-3" target="ryNATmwmhOAve62Uh5K_-3" edge="1">
          <mxGeometry width="50" height="50" relative="1" as="geometry">
            <mxPoint x="6.279999999999973" y="-110.72000000000003" as="sourcePoint" />
            <mxPoint x="54.27999999999997" y="-86.72000000000003" as="targetPoint" />
          </mxGeometry>
        </mxCell>
        <mxCell id="ryNATmwmhOAve62Uh5K_-5" value="" style="endArrow=none;html=1;strokeColor=#000000;strokeWidth=1;entryX=0.8;entryY=0;entryDx=0;entryDy=0;entryPerimeter=0;exitX=0.2;exitY=0.8;exitDx=0;exitDy=0;exitPerimeter=0;" parent="ryNATmwmhOAve62Uh5K_-2" source="ryNATmwmhOAve62Uh5K_-3" target="ryNATmwmhOAve62Uh5K_-3" edge="1">
          <mxGeometry width="50" height="50" relative="1" as="geometry">
            <mxPoint x="-44.60000000000002" y="-134.72000000000003" as="sourcePoint" />
            <mxPoint x="-20.600000000000023" y="-158.72000000000003" as="targetPoint" />
          </mxGeometry>
        </mxCell>
        <mxCell id="ryNATmwmhOAve62Uh5K_-11" value="V" style="text;strokeColor=none;fillColor=none;spacingLeft=4;spacingRight=4;overflow=hidden;rotatable=0;points=[[0,0.5],[1,0.5]];portConstraint=eastwest;fontSize=12;align=center;fontStyle=1" parent="ryNATmwmhOAve62Uh5K_-12" vertex="1">
          <mxGeometry x="25" y="16" width="40" height="26" as="geometry" />
        </mxCell>
        <mxCell id="ryNATmwmhOAve62Uh5K_-13" value="" style="group" parent="7m6j2GZ988V0n2dbMLoH-1" vertex="1" connectable="0">
          <mxGeometry x="1075" y="416" width="65" height="42" as="geometry" />
        </mxCell>
        <mxCell id="ryNATmwmhOAve62Uh5K_-14" value="" style="group" parent="ryNATmwmhOAve62Uh5K_-13" vertex="1" connectable="0">
          <mxGeometry width="48" height="24" as="geometry" />
        </mxCell>
        <mxCell id="ryNATmwmhOAve62Uh5K_-15" value="" style="verticalLabelPosition=bottom;verticalAlign=top;html=1;shape=mxgraph.basic.half_circle;align=center;" parent="ryNATmwmhOAve62Uh5K_-14" vertex="1">
          <mxGeometry width="48" height="24" as="geometry" />
        </mxCell>
        <mxCell id="ryNATmwmhOAve62Uh5K_-16" value="" style="endArrow=none;html=1;strokeColor=#000000;strokeWidth=1;exitX=0.2;exitY=0;exitDx=0;exitDy=0;exitPerimeter=0;entryX=0.8;entryY=0.8;entryDx=0;entryDy=0;entryPerimeter=0;" parent="ryNATmwmhOAve62Uh5K_-14" source="ryNATmwmhOAve62Uh5K_-15" target="ryNATmwmhOAve62Uh5K_-15" edge="1">
          <mxGeometry width="50" height="50" relative="1" as="geometry">
            <mxPoint x="6.279999999999973" y="-110.72000000000003" as="sourcePoint" />
            <mxPoint x="54.27999999999997" y="-86.72000000000003" as="targetPoint" />
          </mxGeometry>
        </mxCell>
        <mxCell id="ryNATmwmhOAve62Uh5K_-17" value="" style="endArrow=none;html=1;strokeColor=#000000;strokeWidth=1;entryX=0.8;entryY=0;entryDx=0;entryDy=0;entryPerimeter=0;exitX=0.2;exitY=0.8;exitDx=0;exitDy=0;exitPerimeter=0;" parent="ryNATmwmhOAve62Uh5K_-14" source="ryNATmwmhOAve62Uh5K_-15" target="ryNATmwmhOAve62Uh5K_-15" edge="1">
          <mxGeometry width="50" height="50" relative="1" as="geometry">
            <mxPoint x="-44.60000000000002" y="-134.72000000000003" as="sourcePoint" />
            <mxPoint x="-20.600000000000023" y="-158.72000000000003" as="targetPoint" />
          </mxGeometry>
        </mxCell>
        <mxCell id="ryNATmwmhOAve62Uh5K_-18" value="V" style="text;strokeColor=none;fillColor=none;spacingLeft=4;spacingRight=4;overflow=hidden;rotatable=0;points=[[0,0.5],[1,0.5]];portConstraint=eastwest;fontSize=12;align=center;fontStyle=1" parent="ryNATmwmhOAve62Uh5K_-13" vertex="1">
          <mxGeometry x="25" y="16" width="40" height="26" as="geometry" />
        </mxCell>
        <mxCell id="ryNATmwmhOAve62Uh5K_-19" style="edgeStyle=orthogonalEdgeStyle;rounded=1;orthogonalLoop=1;jettySize=auto;html=1;startArrow=ERmandOne;startFill=0;endArrow=ERzeroToMany;endFill=1;strokeColor=#000000;strokeWidth=1;exitX=1;exitY=0.5;exitDx=0;exitDy=0;" parent="7m6j2GZ988V0n2dbMLoH-1" source="RGnCGi8KVh0icx6WJeVB-1" target="N3L-eHjsQ5mDB_CrXyUi-0" edge="1">
          <mxGeometry relative="1" as="geometry">
            <mxPoint x="804" y="1099" as="sourcePoint" />
          </mxGeometry>
        </mxCell>
        <mxCell id="ryNATmwmhOAve62Uh5K_-26" value="" style="group" parent="7m6j2GZ988V0n2dbMLoH-1" vertex="1" connectable="0">
          <mxGeometry x="905" y="832" width="65" height="42" as="geometry" />
        </mxCell>
        <mxCell id="ryNATmwmhOAve62Uh5K_-21" value="" style="group;rotation=-180;" parent="ryNATmwmhOAve62Uh5K_-26" vertex="1" connectable="0">
          <mxGeometry y="18" width="48" height="24" as="geometry" />
        </mxCell>
        <mxCell id="ryNATmwmhOAve62Uh5K_-22" value="" style="verticalLabelPosition=bottom;verticalAlign=top;html=1;shape=mxgraph.basic.half_circle;align=center;rotation=-180;" parent="ryNATmwmhOAve62Uh5K_-21" vertex="1">
          <mxGeometry width="48" height="24" as="geometry" />
        </mxCell>
        <mxCell id="ryNATmwmhOAve62Uh5K_-23" value="" style="endArrow=none;html=1;strokeColor=#000000;strokeWidth=1;exitX=0.2;exitY=0;exitDx=0;exitDy=0;exitPerimeter=0;entryX=0.8;entryY=0.8;entryDx=0;entryDy=0;entryPerimeter=0;" parent="ryNATmwmhOAve62Uh5K_-21" source="ryNATmwmhOAve62Uh5K_-22" target="ryNATmwmhOAve62Uh5K_-22" edge="1">
          <mxGeometry width="50" height="50" relative="1" as="geometry">
            <mxPoint x="42" y="135" as="sourcePoint" />
            <mxPoint x="-6" y="111" as="targetPoint" />
          </mxGeometry>
        </mxCell>
        <mxCell id="ryNATmwmhOAve62Uh5K_-24" value="" style="endArrow=none;html=1;strokeColor=#000000;strokeWidth=1;entryX=0.8;entryY=0;entryDx=0;entryDy=0;entryPerimeter=0;exitX=0.2;exitY=0.8;exitDx=0;exitDy=0;exitPerimeter=0;" parent="ryNATmwmhOAve62Uh5K_-21" source="ryNATmwmhOAve62Uh5K_-22" target="ryNATmwmhOAve62Uh5K_-22" edge="1">
          <mxGeometry width="50" height="50" relative="1" as="geometry">
            <mxPoint x="93" y="159" as="sourcePoint" />
            <mxPoint x="69" y="183" as="targetPoint" />
          </mxGeometry>
        </mxCell>
        <mxCell id="ryNATmwmhOAve62Uh5K_-25" value="V" style="text;strokeColor=none;fillColor=none;spacingLeft=4;spacingRight=4;overflow=hidden;rotatable=0;points=[[0,0.5],[1,0.5]];portConstraint=eastwest;fontSize=12;align=center;fontStyle=1" parent="ryNATmwmhOAve62Uh5K_-26" vertex="1">
          <mxGeometry x="25" width="40" height="26" as="geometry" />
        </mxCell>
        <mxCell id="RGnCGi8KVh0icx6WJeVB-0" value="GruppenEinladung" style="swimlane;fontStyle=0;childLayout=stackLayout;horizontal=1;startSize=26;horizontalStack=0;resizeParent=1;resizeParentMax=0;resizeLast=0;collapsible=1;marginBottom=0;align=center;fontSize=14;" parent="7m6j2GZ988V0n2dbMLoH-1" vertex="1">
          <mxGeometry x="644" y="1058" width="160" height="134" as="geometry" />
        </mxCell>
        <mxCell id="RGnCGi8KVh0icx6WJeVB-1" value="kennung_id" style="shape=partialRectangle;top=0;left=0;right=0;bottom=1;align=left;verticalAlign=middle;fillColor=none;spacingLeft=60;spacingRight=4;overflow=hidden;rotatable=0;points=[[0,0.5],[1,0.5]];portConstraint=eastwest;dropTarget=0;fontStyle=3;fontSize=12;" parent="RGnCGi8KVh0icx6WJeVB-0" vertex="1">
          <mxGeometry y="26" width="160" height="30" as="geometry" />
        </mxCell>
        <mxCell id="RGnCGi8KVh0icx6WJeVB-2" value="PK, FK" style="shape=partialRectangle;fontStyle=1;top=0;left=0;bottom=0;fillColor=none;align=left;verticalAlign=middle;spacingLeft=4;spacingRight=4;overflow=hidden;rotatable=0;points=[];portConstraint=eastwest;part=1;fontSize=12;" parent="RGnCGi8KVh0icx6WJeVB-1" vertex="1" connectable="0">
          <mxGeometry width="56" height="30" as="geometry" />
        </mxCell>
        <mxCell id="RGnCGi8KVh0icx6WJeVB-3" value="gruppe_id" style="shape=partialRectangle;top=0;left=0;right=0;bottom=0;align=left;verticalAlign=top;fillColor=none;spacingLeft=60;spacingRight=4;overflow=hidden;rotatable=0;points=[[0,0.5],[1,0.5]];portConstraint=eastwest;dropTarget=0;fontSize=12;fontStyle=2" parent="RGnCGi8KVh0icx6WJeVB-0" vertex="1">
          <mxGeometry y="56" width="160" height="26" as="geometry" />
        </mxCell>
        <mxCell id="RGnCGi8KVh0icx6WJeVB-4" value="FK" style="shape=partialRectangle;top=0;left=0;bottom=0;fillColor=none;align=left;verticalAlign=top;spacingLeft=4;spacingRight=4;overflow=hidden;rotatable=0;points=[];portConstraint=eastwest;part=1;fontSize=12;" parent="RGnCGi8KVh0icx6WJeVB-3" vertex="1" connectable="0">
          <mxGeometry width="56" height="26" as="geometry" />
        </mxCell>
        <mxCell id="RGnCGi8KVh0icx6WJeVB-5" value="ersteller_id" style="shape=partialRectangle;top=0;left=0;right=0;bottom=0;align=left;verticalAlign=top;fillColor=none;spacingLeft=60;spacingRight=4;overflow=hidden;rotatable=0;points=[[0,0.5],[1,0.5]];portConstraint=eastwest;dropTarget=0;fontSize=12;fontStyle=2" parent="RGnCGi8KVh0icx6WJeVB-0" vertex="1">
          <mxGeometry y="82" width="160" height="26" as="geometry" />
        </mxCell>
        <mxCell id="RGnCGi8KVh0icx6WJeVB-6" value="FK" style="shape=partialRectangle;top=0;left=0;bottom=0;fillColor=none;align=left;verticalAlign=top;spacingLeft=4;spacingRight=4;overflow=hidden;rotatable=0;points=[];portConstraint=eastwest;part=1;fontSize=12;" parent="RGnCGi8KVh0icx6WJeVB-5" vertex="1" connectable="0">
          <mxGeometry width="56" height="26" as="geometry" />
        </mxCell>
        <mxCell id="RGnCGi8KVh0icx6WJeVB-7" value="gueltig_bis" style="shape=partialRectangle;top=0;left=0;right=0;bottom=0;align=left;verticalAlign=top;fillColor=none;spacingLeft=60;spacingRight=4;overflow=hidden;rotatable=0;points=[[0,0.5],[1,0.5]];portConstraint=eastwest;dropTarget=0;fontSize=12;" parent="RGnCGi8KVh0icx6WJeVB-0" vertex="1">
          <mxGeometry y="108" width="160" height="26" as="geometry" />
        </mxCell>
        <mxCell id="RGnCGi8KVh0icx6WJeVB-8" value="null" style="shape=partialRectangle;top=0;left=0;bottom=0;fillColor=none;align=left;verticalAlign=top;spacingLeft=4;spacingRight=4;overflow=hidden;rotatable=0;points=[];portConstraint=eastwest;part=1;fontSize=12;" parent="RGnCGi8KVh0icx6WJeVB-7" vertex="1" connectable="0">
          <mxGeometry width="56" height="26" as="geometry" />
        </mxCell>
        <mxCell id="7m6j2GZ988V0n2dbMLoH-63" value="StudentWiederherstellung" style="swimlane;fontStyle=0;childLayout=stackLayout;horizontal=1;startSize=26;horizontalStack=0;resizeParent=1;resizeParentMax=0;resizeLast=0;collapsible=1;marginBottom=0;align=center;fontSize=14;" parent="7m6j2GZ988V0n2dbMLoH-1" vertex="1">
          <mxGeometry x="824" y="396" width="210" height="82" as="geometry" />
        </mxCell>
        <mxCell id="7m6j2GZ988V0n2dbMLoH-64" value="kennung_id" style="shape=partialRectangle;top=0;left=0;right=0;bottom=1;align=left;verticalAlign=middle;fillColor=none;spacingLeft=60;spacingRight=4;overflow=hidden;rotatable=0;points=[[0,0.5],[1,0.5]];portConstraint=eastwest;dropTarget=0;fontStyle=3;fontSize=12;" parent="7m6j2GZ988V0n2dbMLoH-63" vertex="1">
          <mxGeometry y="26" width="210" height="30" as="geometry" />
        </mxCell>
        <mxCell id="7m6j2GZ988V0n2dbMLoH-65" value="PK, FK1" style="shape=partialRectangle;fontStyle=1;top=0;left=0;bottom=0;fillColor=none;align=left;verticalAlign=middle;spacingLeft=4;spacingRight=4;overflow=hidden;rotatable=0;points=[];portConstraint=eastwest;part=1;fontSize=12;" parent="7m6j2GZ988V0n2dbMLoH-64" vertex="1" connectable="0">
          <mxGeometry width="56" height="30" as="geometry" />
        </mxCell>
        <mxCell id="7m6j2GZ988V0n2dbMLoH-66" value="student_id" style="shape=partialRectangle;top=0;left=0;right=0;bottom=0;align=left;verticalAlign=top;fillColor=none;spacingLeft=60;spacingRight=4;overflow=hidden;rotatable=0;points=[[0,0.5],[1,0.5]];portConstraint=eastwest;dropTarget=0;fontSize=12;fontStyle=2" parent="7m6j2GZ988V0n2dbMLoH-63" vertex="1">
          <mxGeometry y="56" width="210" height="26" as="geometry" />
        </mxCell>
        <mxCell id="7m6j2GZ988V0n2dbMLoH-67" value="FK2, UQ" style="shape=partialRectangle;top=0;left=0;bottom=0;fillColor=none;align=left;verticalAlign=top;spacingLeft=4;spacingRight=4;overflow=hidden;rotatable=0;points=[];portConstraint=eastwest;part=1;fontSize=12;" parent="7m6j2GZ988V0n2dbMLoH-66" vertex="1" connectable="0">
          <mxGeometry width="56" height="26" as="geometry" />
        </mxCell>
        <mxCell id="7m6j2GZ988V0n2dbMLoH-68" value="StudentVerifizierung" style="swimlane;fontStyle=0;childLayout=stackLayout;horizontal=1;startSize=26;horizontalStack=0;resizeParent=1;resizeParentMax=0;resizeLast=0;collapsible=1;marginBottom=0;align=center;fontSize=14;" parent="7m6j2GZ988V0n2dbMLoH-1" vertex="1">
          <mxGeometry x="824" y="288" width="160" height="82" as="geometry" />
        </mxCell>
        <mxCell id="7m6j2GZ988V0n2dbMLoH-69" value="kennung_id" style="shape=partialRectangle;top=0;left=0;right=0;bottom=1;align=left;verticalAlign=middle;fillColor=none;spacingLeft=60;spacingRight=4;overflow=hidden;rotatable=0;points=[[0,0.5],[1,0.5]];portConstraint=eastwest;dropTarget=0;fontStyle=3;fontSize=12;" parent="7m6j2GZ988V0n2dbMLoH-68" vertex="1">
          <mxGeometry y="26" width="160" height="30" as="geometry" />
        </mxCell>
        <mxCell id="7m6j2GZ988V0n2dbMLoH-70" value="PK, FK1" style="shape=partialRectangle;fontStyle=1;top=0;left=0;bottom=0;fillColor=none;align=left;verticalAlign=middle;spacingLeft=4;spacingRight=4;overflow=hidden;rotatable=0;points=[];portConstraint=eastwest;part=1;fontSize=12;" parent="7m6j2GZ988V0n2dbMLoH-69" vertex="1" connectable="0">
          <mxGeometry width="56" height="30" as="geometry" />
        </mxCell>
        <mxCell id="7m6j2GZ988V0n2dbMLoH-71" value="student_id" style="shape=partialRectangle;top=0;left=0;right=0;bottom=0;align=left;verticalAlign=top;fillColor=none;spacingLeft=60;spacingRight=4;overflow=hidden;rotatable=0;points=[[0,0.5],[1,0.5]];portConstraint=eastwest;dropTarget=0;fontSize=12;fontStyle=2" parent="7m6j2GZ988V0n2dbMLoH-68" vertex="1">
          <mxGeometry y="56" width="160" height="26" as="geometry" />
        </mxCell>
        <mxCell id="7m6j2GZ988V0n2dbMLoH-72" value="FK2, UQ" style="shape=partialRectangle;top=0;left=0;bottom=0;fillColor=none;align=left;verticalAlign=top;spacingLeft=4;spacingRight=4;overflow=hidden;rotatable=0;points=[];portConstraint=eastwest;part=1;fontSize=12;" parent="7m6j2GZ988V0n2dbMLoH-71" vertex="1" connectable="0">
          <mxGeometry width="56" height="26" as="geometry" />
        </mxCell>
        <mxCell id="-0hzGVmK5FNyB-383zZM-0" value="🠝 wurde verfasst von" style="text;html=1;strokeColor=none;fillColor=none;align=center;verticalAlign=middle;whiteSpace=wrap;rounded=0;" vertex="1" parent="7m6j2GZ988V0n2dbMLoH-1">
          <mxGeometry x="570" y="827" width="90" height="40" as="geometry" />
        </mxCell>
        <mxCell id="dqhEjT99HoNCxWlV5GIp-0" value="🠝 wurde gestellt von" style="text;html=1;strokeColor=none;fillColor=none;align=center;verticalAlign=middle;whiteSpace=wrap;rounded=0;" vertex="1" parent="7m6j2GZ988V0n2dbMLoH-1">
          <mxGeometry x="596" y="978" width="80" height="40" as="geometry" />
        </mxCell>
        <mxCell id="PcY1shTEOTY0dVcjPUH0-0" value="🠝 fällt unter" style="text;html=1;strokeColor=none;fillColor=none;align=center;verticalAlign=middle;whiteSpace=wrap;rounded=0;" vertex="1" parent="7m6j2GZ988V0n2dbMLoH-1">
          <mxGeometry x="70" y="422" width="74" height="30" as="geometry" />
        </mxCell>
        <mxCell id="PcY1shTEOTY0dVcjPUH0-1" value="🠝 hat&amp;nbsp;" style="text;html=1;strokeColor=none;fillColor=none;align=center;verticalAlign=middle;whiteSpace=wrap;rounded=0;" vertex="1" parent="7m6j2GZ988V0n2dbMLoH-1">
          <mxGeometry x="350" y="476" width="40" height="28" as="geometry" />
        </mxCell>
        <mxCell id="PcY1shTEOTY0dVcjPUH0-3" value="wurde erstellt von&amp;nbsp;🠞" style="text;html=1;strokeColor=none;fillColor=none;align=center;verticalAlign=middle;whiteSpace=wrap;rounded=0;" vertex="1" parent="7m6j2GZ988V0n2dbMLoH-1">
          <mxGeometry x="367" y="577" width="146" height="20" as="geometry" />
        </mxCell>
        <mxCell id="PaDMkGVw4Q-P_4a7_B3k-0" value="🠘 beinhaltet" style="text;strokeColor=none;fillColor=none;spacingLeft=4;spacingRight=4;overflow=hidden;rotatable=0;points=[[0,0.5],[1,0.5]];portConstraint=eastwest;fontSize=12;align=center;" vertex="1" parent="7m6j2GZ988V0n2dbMLoH-1">
          <mxGeometry x="257" y="247" width="74" height="26" as="geometry" />
        </mxCell>
        <mxCell id="PaDMkGVw4Q-P_4a7_B3k-1" value="&lt;span&gt;🠘&amp;nbsp;&lt;/span&gt;beherbergt" style="text;html=1;strokeColor=none;fillColor=none;align=center;verticalAlign=middle;whiteSpace=wrap;rounded=0;" vertex="1" parent="7m6j2GZ988V0n2dbMLoH-1">
          <mxGeometry x="539" y="218" width="80" height="30" as="geometry" />
        </mxCell>
        <mxCell id="CzZR2kLCrQkjc6flMvDh-0" style="edgeStyle=orthogonalEdgeStyle;rounded=1;orthogonalLoop=1;jettySize=auto;html=1;startArrow=ERzeroToMany;startFill=1;endArrow=ERmandOne;endFill=0;dashed=1;entryX=0;entryY=0.5;entryDx=0;entryDy=0;" edge="1" parent="7m6j2GZ988V0n2dbMLoH-1" target="CzZR2kLCrQkjc6flMvDh-2" source="7m6j2GZ988V0n2dbMLoH-103">
          <mxGeometry relative="1" as="geometry">
            <mxPoint x="520" y="299" as="sourcePoint" />
            <Array as="points">
              <mxPoint x="540" y="299" />
              <mxPoint x="540" y="246" />
            </Array>
          </mxGeometry>
        </mxCell>
        <mxCell id="CzZR2kLCrQkjc6flMvDh-1" value="Fakultaet" style="swimlane;fontStyle=0;childLayout=stackLayout;horizontal=1;startSize=26;horizontalStack=0;resizeParent=1;resizeParentMax=0;resizeLast=0;collapsible=1;marginBottom=0;align=center;fontSize=14;" vertex="1" parent="7m6j2GZ988V0n2dbMLoH-1">
          <mxGeometry x="630" y="205" width="160" height="108" as="geometry" />
        </mxCell>
        <mxCell id="CzZR2kLCrQkjc6flMvDh-2" value="id" style="shape=partialRectangle;top=0;left=0;right=0;bottom=1;align=left;verticalAlign=middle;fillColor=none;spacingLeft=34;spacingRight=4;overflow=hidden;rotatable=0;points=[[0,0.5],[1,0.5]];portConstraint=eastwest;dropTarget=0;fontStyle=1;fontSize=12;" vertex="1" parent="CzZR2kLCrQkjc6flMvDh-1">
          <mxGeometry y="26" width="160" height="30" as="geometry" />
        </mxCell>
        <mxCell id="CzZR2kLCrQkjc6flMvDh-3" value="PK" style="shape=partialRectangle;top=0;left=0;bottom=0;fillColor=none;align=left;verticalAlign=middle;spacingLeft=4;spacingRight=4;overflow=hidden;rotatable=0;points=[];portConstraint=eastwest;part=1;fontSize=12;fontStyle=1" vertex="1" connectable="0" parent="CzZR2kLCrQkjc6flMvDh-2">
          <mxGeometry width="30" height="30" as="geometry" />
        </mxCell>
        <mxCell id="CzZR2kLCrQkjc6flMvDh-4" value="name" style="shape=partialRectangle;top=0;left=0;right=0;bottom=0;align=left;verticalAlign=top;fillColor=none;spacingLeft=34;spacingRight=4;overflow=hidden;rotatable=0;points=[[0,0.5],[1,0.5]];portConstraint=eastwest;dropTarget=0;fontSize=12;" vertex="1" parent="CzZR2kLCrQkjc6flMvDh-1">
          <mxGeometry y="56" width="160" height="26" as="geometry" />
        </mxCell>
        <mxCell id="CzZR2kLCrQkjc6flMvDh-5" value="" style="shape=partialRectangle;top=0;left=0;bottom=0;fillColor=none;align=left;verticalAlign=top;spacingLeft=4;spacingRight=4;overflow=hidden;rotatable=0;points=[];portConstraint=eastwest;part=1;fontSize=12;" vertex="1" connectable="0" parent="CzZR2kLCrQkjc6flMvDh-4">
          <mxGeometry width="30" height="26" as="geometry" />
        </mxCell>
        <mxCell id="CzZR2kLCrQkjc6flMvDh-6" value="standort" style="shape=partialRectangle;top=0;left=0;right=0;bottom=0;align=left;verticalAlign=top;fillColor=none;spacingLeft=34;spacingRight=4;overflow=hidden;rotatable=0;points=[[0,0.5],[1,0.5]];portConstraint=eastwest;dropTarget=0;fontSize=12;" vertex="1" parent="CzZR2kLCrQkjc6flMvDh-1">
          <mxGeometry y="82" width="160" height="26" as="geometry" />
        </mxCell>
        <mxCell id="CzZR2kLCrQkjc6flMvDh-7" value="" style="shape=partialRectangle;top=0;left=0;bottom=0;fillColor=none;align=left;verticalAlign=top;spacingLeft=4;spacingRight=4;overflow=hidden;rotatable=0;points=[];portConstraint=eastwest;part=1;fontSize=12;" vertex="1" connectable="0" parent="CzZR2kLCrQkjc6flMvDh-6">
          <mxGeometry width="30" height="26" as="geometry" />
        </mxCell>
        <mxCell id="aFltJiQWA5BSAAYjqt3R-0" value="🠝 wurde erstellt von" style="text;html=1;strokeColor=none;fillColor=none;align=center;verticalAlign=middle;whiteSpace=wrap;rounded=0;" vertex="1" parent="7m6j2GZ988V0n2dbMLoH-1">
          <mxGeometry x="722" y="978" width="80" height="40" as="geometry" />
        </mxCell>
        <mxCell id="FeGx5r11hyxxE5Wlb9R_-0" style="edgeStyle=orthogonalEdgeStyle;rounded=1;orthogonalLoop=1;jettySize=auto;html=1;startArrow=ERzeroToMany;startFill=1;endArrow=ERmandOne;endFill=0;strokeColor=#000000;dashed=1;" edge="1" parent="7m6j2GZ988V0n2dbMLoH-1" source="7m6j2GZ988V0n2dbMLoH-40" target="7m6j2GZ988V0n2dbMLoH-10">
          <mxGeometry relative="1" as="geometry">
            <mxPoint x="346" y="437" as="sourcePoint" />
            <Array as="points">
              <mxPoint x="390" y="437" />
              <mxPoint x="390" y="545" />
            </Array>
            <mxPoint x="346" y="545" as="targetPoint" />
          </mxGeometry>
        </mxCell>
        <mxCell id="Mx-MFoiSmfGNoDfs69Hi-0" style="rounded=1;orthogonalLoop=1;jettySize=auto;html=1;startArrow=ERzeroToMany;startFill=1;endArrow=ERmandOne;endFill=0;strokeColor=#000000;edgeStyle=orthogonalEdgeStyle;dashed=1;" edge="1" parent="7m6j2GZ988V0n2dbMLoH-1" source="7m6j2GZ988V0n2dbMLoH-14" target="7m6j2GZ988V0n2dbMLoH-53">
          <mxGeometry relative="1" as="geometry">
            <mxPoint x="596" y="517" as="targetPoint" />
            <mxPoint x="346" y="599" as="sourcePoint" />
            <Array as="points">
              <mxPoint x="520" y="599" />
              <mxPoint x="520" y="517" />
            </Array>
          </mxGeometry>
        </mxCell>
        <mxCell id="gf9KJgizvhpgFTNmwg-B-0" value="🠘 ist eingeschrieben in" style="text;html=1;strokeColor=none;fillColor=none;align=center;verticalAlign=middle;whiteSpace=wrap;rounded=0;" vertex="1" parent="7m6j2GZ988V0n2dbMLoH-1">
          <mxGeometry x="441" y="461" width="140" height="29" as="geometry" />
        </mxCell>
      </root>
    </mxGraphModel>
  </diagram>
</mxfile>
